<svg width="64" height="64" viewBox="0 0 64 64" fill="none" xmlns="http://www.w3.org/2000/svg">
<g id="confetti-party 1">
<path id="Vector" d="M13.8352 10.1306V10.1293C13.8366 10.1169 13.8333 10.1044 13.8258 10.0945C13.8184 10.0845 13.8074 10.0777 13.7951 10.0755C10.8761 10.0189 8.51822 6.89613 8.47534 3.03041C8.47534 3.00084 8.45704 2.97716 8.43476 2.97716H8.43374C8.4116 2.97716 8.39355 3.00084 8.39329 3.03041C8.35041 6.89601 5.99252 10.0192 3.07348 10.0755C3.06119 10.0777 3.05018 10.0844 3.04271 10.0944C3.03523 10.1044 3.03187 10.1169 3.03329 10.1293V10.1306C3.03183 10.143 3.03519 10.1555 3.04267 10.1655C3.05015 10.1755 3.06118 10.1822 3.07348 10.1843C5.99252 10.241 8.35041 13.3637 8.39329 17.2296C8.39329 17.259 8.4116 17.2827 8.43374 17.2827H8.43528C8.44758 17.2808 8.45865 17.2742 8.46621 17.2643C8.47377 17.2544 8.47722 17.2419 8.47585 17.2296C8.51873 13.364 10.8766 10.2408 13.7957 10.1843C13.8079 10.1821 13.8188 10.1753 13.8261 10.1653C13.8335 10.1553 13.8367 10.1429 13.8352 10.1306ZM60.0149 51.7345V51.7331C60.0163 51.7207 60.013 51.7083 60.0055 51.6983C59.998 51.6883 59.987 51.6816 59.9747 51.6795C57.0563 51.6228 54.6978 48.5 54.655 44.6342C54.655 44.6047 54.6367 44.581 54.6145 44.581H54.6134C54.5912 44.581 54.5733 44.6047 54.573 44.6342C54.5301 48.4998 52.1722 51.623 49.2532 51.6795C49.2409 51.6816 49.2299 51.6883 49.2224 51.6983C49.215 51.7083 49.2116 51.7207 49.213 51.7331V51.7345C49.2116 51.7469 49.215 51.7594 49.2224 51.7694C49.2299 51.7793 49.2409 51.7861 49.2532 51.7882C52.1722 51.8449 54.5301 54.9677 54.573 58.8334C54.573 58.8629 54.5912 58.8867 54.6134 58.8867H54.6145C54.6367 58.8867 54.6547 58.8629 54.655 58.8334C54.6978 54.9678 57.0558 51.8446 59.9747 51.7882C59.987 51.7861 59.998 51.7793 60.0055 51.7694C60.013 51.7594 60.0163 51.7469 60.0149 51.7345Z" fill="#F0F2FC"/>
<path id="Vector_2" d="M34.7085 22.3629L33.1354 24.2253C33.0253 24.3556 32.8902 24.4626 32.738 24.5399C32.5859 24.6172 32.4199 24.6633 32.2496 24.6755C32.0794 24.6877 31.9085 24.6657 31.7469 24.6108C31.5854 24.5559 31.4364 24.4692 31.3089 24.3558L30.569 23.6992L23.5879 17.5014C23.3381 17.2794 23.1849 16.9686 23.161 16.6353C23.1371 16.302 23.2443 15.9725 23.4599 15.7171L24.2983 14.7264L24.7105 14.2387C24.9261 13.9833 25.233 13.8224 25.5658 13.7903C25.8985 13.7583 26.2305 13.8577 26.4909 14.0672L34.5345 20.5402C34.6673 20.6472 34.7775 20.7797 34.8584 20.9299C34.9393 21.0801 34.9893 21.245 35.0055 21.4148C35.0217 21.5847 35.0038 21.7561 34.9528 21.9189C34.9018 22.0817 34.8188 22.2326 34.7085 22.3629Z" fill="#D559BA"/>
<path id="Vector_3" d="M31.698 22.3629L30.569 23.6992L23.5879 17.5014C23.3381 17.2794 23.1849 16.9686 23.161 16.6353C23.1371 16.302 23.2443 15.9725 23.4599 15.7171L24.2983 14.7264L31.5226 20.5402C31.6556 20.6471 31.7658 20.7795 31.8468 20.9297C31.9278 21.0799 31.978 21.2447 31.9943 21.4146C32.0106 21.5844 31.9928 21.7558 31.9419 21.9187C31.8911 22.0815 31.8081 22.2326 31.698 22.3629Z" fill="#EF8BBD"/>
<path id="Vector_4" d="M49.4107 34.5139C49.4108 34.9705 49.2755 35.4169 49.022 35.7966C48.7684 36.1763 48.408 36.4722 47.9862 36.6471C47.5644 36.8219 47.1003 36.8678 46.6524 36.7788C46.2046 36.6899 45.7932 36.4701 45.4703 36.1474C45.1474 35.8246 44.9274 35.4133 44.8382 34.9656C44.749 34.5178 44.7946 34.0536 44.9692 33.6317C45.1438 33.2099 45.4396 32.8493 45.8191 32.5955C46.1987 32.3417 46.645 32.2062 47.1015 32.2061C47.2686 32.2055 47.4353 32.2239 47.5982 32.2611C48.112 32.3735 48.5719 32.6582 48.9015 33.068C49.2312 33.4778 49.4109 33.988 49.4107 34.5139Z" fill="#934CD7"/>
<path id="Vector_5" d="M37.1738 44.6707L35.4611 47.9526C35.3524 48.161 35.2036 48.346 35.0233 48.4968C34.843 48.6477 34.6348 48.7616 34.4105 48.832C34.1862 48.9023 33.9502 48.9278 33.716 48.907C33.4819 48.8861 33.2541 48.8193 33.0458 48.7104L29.7639 46.9978C29.4833 46.8514 29.2467 46.6331 29.0782 46.3652C28.9098 46.0974 28.8155 45.7895 28.8051 45.4733C28.7927 45.1638 28.862 44.8565 29.0061 44.5824L30.7187 41.3005C30.9386 40.8797 31.3166 40.5635 31.7695 40.4214C32.2225 40.2793 32.7133 40.323 33.1341 40.5427L35.7888 41.929L36.416 42.2554C36.8367 42.4753 37.1529 42.8532 37.2949 43.3062C37.437 43.7591 37.3935 44.2499 37.1738 44.6707Z" fill="#5F98C9"/>
<path id="Vector_6" d="M48.0987 33.6947C48.0988 34.307 47.8557 34.8942 47.4229 35.3272C46.9901 35.7603 46.4031 36.0036 45.7908 36.0038C45.6238 36.0042 45.4572 35.9862 45.2942 35.9501C45.0243 35.6101 44.8557 35.201 44.8078 34.7696C44.7599 34.3381 44.8346 33.902 45.0233 33.5111C45.212 33.1202 45.507 32.7904 45.8746 32.5596C46.2423 32.3287 46.6675 32.2062 47.1015 32.2061C47.2686 32.2055 47.4353 32.2239 47.5982 32.2611C47.9231 32.6682 48.0996 33.1739 48.0987 33.6947Z" fill="#9B65E9"/>
<path id="Vector_7" d="M35.5879 42.8198L33.8752 46.1018C33.7665 46.3102 33.6177 46.4952 33.4374 46.6461C33.2572 46.797 33.0489 46.9109 32.8246 46.9812C32.6003 47.0516 32.3643 47.0771 32.1301 47.0562C31.8959 47.0353 31.6682 46.9685 31.4599 46.8595L28.8051 45.4733C28.7927 45.1638 28.862 44.8565 29.0061 44.5824L30.7187 41.3005C30.9386 40.8797 31.3166 40.5635 31.7695 40.4214C32.2225 40.2793 32.7133 40.323 33.1341 40.5427L35.7888 41.929C35.8013 42.2384 35.732 42.5457 35.5879 42.8198Z" fill="#8BB6F0"/>
<path id="Vector_8" d="M12.4003 58.304L9.49444 59.136C9.1594 59.2319 8.80635 59.2467 8.46445 59.1793C8.12254 59.1118 7.80158 58.964 7.52805 58.7481C7.25452 58.5322 7.03626 58.2543 6.8913 57.9373C6.74633 57.6204 6.67881 57.2736 6.69431 56.9254C6.71454 56.468 6.87714 56.0283 7.15941 55.6678C7.44167 55.3073 7.8295 55.0439 8.26871 54.9146L17.2734 52.2598L16.4323 54.6568L12.4003 58.304ZM18.7728 29.7283L21.6784 28.8971C22.0134 28.8013 22.3663 28.7865 22.7081 28.854C23.0499 28.9214 23.3708 29.0691 23.6443 29.285C23.9178 29.5009 24.136 29.7787 24.281 30.0955C24.426 30.4123 24.4936 30.759 24.4783 31.1071C24.458 31.5645 24.2954 32.0042 24.0131 32.3647C23.7309 32.7253 23.3431 32.9887 22.9039 33.1181L13.8993 35.7727L14.7403 33.3757L18.7728 29.7283Z" fill="#67C1A0"/>
<path id="Vector_9" d="M18.427 55.4586C17.8223 55.9587 17.1677 56.3954 16.4737 56.7616C15.1831 57.4379 13.8155 57.9558 12.4007 58.304C12.4007 58.304 14.5089 56.7398 14.5089 52.8218C14.5089 50.935 14.0199 48.5043 12.5735 45.44C8.1204 36.0064 12.7463 32.5734 12.7463 32.5734C14.203 31.3549 16.2689 30.3693 18.7726 29.728C18.7726 29.728 18.1377 30.199 17.5655 31.2717C17.0932 32.1536 16.6644 33.4426 16.6644 35.2115C16.6644 37.097 17.1534 39.529 18.5998 42.5933C23.0529 52.0256 18.427 55.4586 18.427 55.4586Z" fill="#71FAC3"/>
<path id="Vector_10" d="M58.2953 23.451L60.6187 23.2703C60.8866 23.2494 61.1456 23.1652 61.3745 23.0245C61.6034 22.8838 61.7955 22.6908 61.9351 22.4612C62.0747 22.2317 62.1577 21.9722 62.1773 21.7043C62.1969 21.4364 62.1525 21.1676 62.0478 20.9202C61.9102 20.5951 61.6745 20.3211 61.3736 20.1365C61.0727 19.9518 60.7217 19.8658 60.3695 19.8903L53.1484 20.3933L54.4007 21.8994L58.2953 23.451ZM46.0055 4.51392L43.682 4.69465C43.4142 4.71551 43.1551 4.79975 42.9262 4.94042C42.6974 5.08109 42.5052 5.27416 42.3656 5.5037C42.226 5.73325 42.143 5.99269 42.1234 6.26062C42.1038 6.52856 42.1482 6.79732 42.2529 7.04473C42.3905 7.36983 42.6262 7.64383 42.9271 7.82847C43.228 8.01311 43.5791 8.09916 43.9312 8.07462L51.1524 7.57158L49.9001 6.06553L46.0055 4.51392Z" fill="#F0AA66"/>
<path id="Vector_11" d="M46.0054 4.51392C47.9873 4.30375 49.7451 4.46042 51.126 4.94912C51.126 4.94912 55.3919 6.1865 54.71 14.2006C54.0292 22.2134 58.294 23.4509 58.294 23.4509C56.3121 23.6611 54.5542 23.5044 53.174 23.0157C53.174 23.0157 48.9082 21.7783 49.59 13.7642C50.2708 5.7513 46.0054 4.51392 46.0054 4.51392Z" fill="#FFDC5E"/>
</g>
</svg>
