<svg width="28" height="29" viewBox="0 0 28 29" fill="none" xmlns="http://www.w3.org/2000/svg">
<g id="Icon">
<rect id="BG" y="0.358887" width="28" height="28" rx="4" fill="black"/>
<g id="Vector">
<path d="M22.7969 19.8003C22.519 19.6071 22.2745 19.37 22.0728 19.0982C21.5901 18.5497 20.9758 17.8695 19.8348 17.8695C18.6939 17.8695 18.1015 18.5277 17.5968 19.1201C17.0922 19.7125 16.7631 20.0636 16.0171 20.0636C15.2711 20.0636 14.8981 19.6467 14.4374 19.1201C13.9766 18.5935 13.3622 17.8695 12.1994 17.8695C11.0365 17.8695 10.466 18.5277 9.96136 19.1201C9.45673 19.7125 9.12761 20.0636 8.38162 20.0636C7.63564 20.0636 7.26263 19.6467 6.80188 19.1201C6.48867 18.7065 6.0926 18.3627 5.639 18.1108C5.42087 18.0018 5.15566 18.0902 5.0466 18.3083C4.93753 18.5264 5.02593 18.7916 5.24406 18.9007C5.58856 19.1083 5.8932 19.3758 6.14363 19.6906C6.64826 20.283 7.24066 20.9412 8.38162 20.9412C9.52258 20.9412 10.1149 20.283 10.6196 19.6906C11.1242 19.0982 11.4534 18.7471 12.1994 18.7471C12.9453 18.7471 13.3184 19.164 13.7791 19.6906C14.2398 20.2172 14.8542 20.9412 16.0171 20.9412C17.18 20.9412 17.7504 20.283 18.2551 19.6906C18.7597 19.0982 19.0888 18.7471 19.8348 18.7471C20.5808 18.7471 20.9538 19.164 21.4146 19.6906C21.6703 20.0189 21.9735 20.3073 22.3141 20.5462C22.5201 20.6795 22.7952 20.6206 22.9285 20.4146C23.0618 20.2086 23.0029 19.9336 22.7969 19.8003Z" fill="#FFEBB9"/>
<path d="M22.7969 16.5091C22.519 16.316 22.2745 16.0788 22.0728 15.807C21.5901 15.2585 20.9758 14.5783 19.8348 14.5783C18.6939 14.5783 18.1015 15.2365 17.5968 15.829C17.0922 16.4214 16.7631 16.7724 16.0171 16.7724C15.2711 16.7724 14.8981 16.3555 14.4374 15.829C13.9766 15.3024 13.3622 14.5783 12.1994 14.5783C11.0365 14.5783 10.466 15.2365 9.96136 15.829C9.45673 16.4214 9.12761 16.7724 8.38162 16.7724C7.63564 16.7724 7.26263 16.3555 6.80188 15.829C6.48867 15.4153 6.0926 15.0716 5.639 14.8197C5.42087 14.7106 5.15566 14.799 5.0466 15.0172C4.93753 15.2353 5.02593 15.5005 5.24406 15.6096C5.58856 15.8172 5.8932 16.0847 6.14363 16.3994C6.64826 16.9918 7.24066 17.6501 8.38162 17.6501C9.52258 17.6501 10.1149 16.9919 10.6196 16.3994C11.1242 15.807 11.4534 15.456 12.1994 15.456C12.9453 15.456 13.3184 15.8729 13.7791 16.3994C14.2398 16.926 14.8542 17.6501 16.0171 17.6501C17.18 17.6501 17.7504 16.9919 18.2551 16.3994C18.7597 15.807 19.0888 15.456 19.8348 15.456C20.5808 15.456 20.9538 15.8729 21.4146 16.3994C21.6703 16.7278 21.9735 17.0161 22.3141 17.2551C22.5201 17.3884 22.7952 17.3295 22.9285 17.1235C23.0618 16.9175 23.0029 16.6424 22.7969 16.5091Z" fill="#FFEBB9"/>
<path d="M22.7969 12.9985C22.519 12.8053 22.2745 12.5682 22.0728 12.2964C21.5901 11.7478 20.9758 11.0677 19.8348 11.0677C18.6939 11.0677 18.1015 11.7259 17.5968 12.3183C17.0922 12.9108 16.7631 13.2618 16.0171 13.2618C15.2711 13.2618 14.8981 12.8449 14.4374 12.3183C13.9766 11.7918 13.3622 11.0677 12.1994 11.0677C11.0365 11.0677 10.466 11.7259 9.96136 12.3183C9.45673 12.9107 9.12761 13.2618 8.38162 13.2618C7.63564 13.2618 7.26263 12.8449 6.80188 12.3183C6.48867 11.9047 6.0926 11.5609 5.639 11.309C5.42087 11.1999 5.15566 11.2884 5.0466 11.5065C4.93753 11.7246 5.02593 11.9898 5.24406 12.0989C5.58856 12.3065 5.8932 12.574 6.14363 12.8888C6.64826 13.4812 7.24066 14.1394 8.38162 14.1394C9.52258 14.1394 10.1149 13.4812 10.6196 12.8888C11.1242 12.2964 11.4534 11.9453 12.1994 11.9453C12.9453 11.9453 13.3184 12.3622 13.7791 12.8888C14.2398 13.4153 14.8542 14.1394 16.0171 14.1394C17.18 14.1394 17.7504 13.4812 18.2551 12.8888C18.7598 12.2963 19.0888 11.9453 19.8348 11.9453C20.5808 11.9453 20.9538 12.3622 21.4146 12.8888C21.6703 13.2171 21.9735 13.5055 22.3141 13.7444C22.5201 13.8777 22.7952 13.8188 22.9285 13.6128C23.0618 13.4068 23.0029 13.1317 22.7969 12.9985Z" fill="#FFEBB9"/>
<path d="M5.24424 8.80784C5.58873 9.01547 5.89338 9.28298 6.1438 9.59771C6.64843 10.1901 7.24083 10.8484 8.3818 10.8484C9.52276 10.8484 10.1151 10.1902 10.6198 9.59771C11.1244 9.0053 11.4535 8.65425 12.1995 8.65425C12.9455 8.65425 13.3185 9.07115 13.7793 9.59771C14.24 10.1243 14.8544 10.8484 16.0173 10.8484C17.1802 10.8484 17.7506 10.1902 18.2553 9.59771C18.7599 9.0053 19.089 8.65425 19.835 8.65425C20.581 8.65425 20.954 9.07115 21.4147 9.59771C21.6705 9.92603 21.9736 10.2144 22.3143 10.4534C22.5203 10.5867 22.7954 10.5278 22.9287 10.3218C23.062 10.1158 23.0031 9.8407 22.797 9.7074C22.5191 9.51426 22.2746 9.2771 22.073 9.0053C21.5902 8.45679 20.9759 7.77661 19.835 7.77661C18.694 7.77661 18.1016 8.43482 17.597 9.02727C17.0923 9.61967 16.7632 9.97072 16.0172 9.97072C15.2712 9.97072 14.8982 9.55382 14.4375 9.02727C13.9767 8.50067 13.3624 7.77661 12.1995 7.77661C11.0366 7.77661 10.4662 8.43482 9.96149 9.02727C9.45686 9.61967 9.12774 9.97072 8.38175 9.97072C7.63577 9.97072 7.26284 9.55382 6.80205 9.02723C6.48884 8.61356 6.09278 8.26982 5.63917 8.01792C5.42104 7.90886 5.15583 7.99726 5.04677 8.21539C4.9377 8.43352 5.02615 8.69877 5.24424 8.80784Z" fill="#FFEBB9"/>
</g>
</g>
</svg>
