<?xml version="1.0" encoding="UTF-8"?>
<svg width="137" height="31" viewBox="0 0 137 31" fill="none" version="1.1" xmlns="http://www.w3.org/2000/svg" xmlns:xlink="http://www.w3.org/1999/xlink">
<g id="Logo" opacity="0.6">
<path d="M33.1768 7.2937H36.3421V22.6107H33.1768V7.2937Z" fill="#1D2130"/>
<path d="M38.1147 17.3637C38.1147 16.2617 38.4404 15.1845 39.0505 14.2687C39.6606 13.3528 40.5276 12.6396 41.5416 12.2193C42.5556 11.7991 43.671 11.6907 44.7464 11.9081C45.8218 12.1254 46.8087 12.6586 47.5822 13.44C48.3556 14.2215 48.8806 15.216 49.0908 16.2976C49.3009 17.3792 49.1867 18.4991 48.7626 19.5154C48.3385 20.5317 47.6236 21.3987 46.7085 22.0063C45.7934 22.614 44.7193 22.935 43.6224 22.9287C42.8948 22.9344 42.1735 22.7941 41.5006 22.5161C40.8278 22.238 40.2169 21.8278 39.7039 21.3095C39.1909 20.7912 38.7861 20.1752 38.5132 19.4976C38.2403 18.82 38.1048 18.0946 38.1147 17.3637ZM46.0491 17.3637C46.0367 16.8886 45.8851 16.4277 45.6133 16.0388C45.3415 15.6498 44.9616 15.3499 44.5211 15.1767C44.0805 15.0035 43.599 14.9646 43.1366 15.0649C42.6742 15.1652 42.2514 15.4003 41.9213 15.7407C41.5912 16.0811 41.3683 16.5117 41.2805 16.9787C41.1927 17.4457 41.2438 17.9283 41.4276 18.3662C41.6114 18.8042 41.9197 19.1779 42.3138 19.4408C42.7079 19.7036 43.1704 19.8439 43.6435 19.8441C43.9656 19.8504 44.2855 19.7899 44.5832 19.6664C44.881 19.5428 45.1502 19.3589 45.374 19.1261C45.5978 18.8933 45.7714 18.6167 45.8839 18.3134C45.9964 18.0102 46.0455 17.6868 46.028 17.3637H46.0491Z" fill="#1D2130"/>
<path d="M61.6543 12.1167V22.0913C61.6543 25.6105 58.911 27.1051 56.1361 27.1051C55.1573 27.1858 54.1755 26.9904 53.3012 26.541C52.427 26.0915 51.695 25.4058 51.1876 24.5611L53.857 23.0135C54.0733 23.4516 54.4174 23.8132 54.8434 24.0499C55.2695 24.2866 55.7572 24.3873 56.2416 24.3385C56.5502 24.3767 56.8633 24.3459 57.1587 24.2483C57.4541 24.1508 57.7243 23.9889 57.9502 23.7741C58.176 23.5594 58.3518 23.2972 58.465 23.0063C58.5782 22.7154 58.626 22.4029 58.605 22.0913V21.1267C58.2367 21.5754 57.7693 21.9316 57.24 22.1671C56.7107 22.4026 56.134 22.511 55.5558 22.4835C54.1566 22.4835 52.8147 21.9251 51.8254 20.9312C50.836 19.9372 50.2802 18.5891 50.2802 17.1835C50.2802 15.7778 50.836 14.4298 51.8254 13.4358C52.8147 12.4419 54.1566 11.8835 55.5558 11.8835C56.134 11.856 56.7107 11.9643 57.24 12.1999C57.7693 12.4354 58.2367 12.7916 58.605 13.2403V12.1803L61.6543 12.1167ZM58.605 17.1517C58.6261 16.6446 58.4956 16.1427 58.2305 15.7106C57.9654 15.2786 57.5776 14.936 57.1172 14.7271C56.6567 14.5182 56.1446 14.4525 55.6466 14.5384C55.1486 14.6242 54.6876 14.8578 54.3229 15.209C53.9581 15.5601 53.7062 16.0129 53.5997 16.5091C53.4931 17.0053 53.5367 17.5221 53.7249 17.9932C53.913 18.4642 54.2371 18.868 54.6556 19.1525C55.074 19.437 55.5675 19.5893 56.0728 19.5897C56.4024 19.6136 56.7334 19.5677 57.0444 19.455C57.3553 19.3424 57.6392 19.1655 57.8779 18.9357C58.1165 18.706 58.3045 18.4285 58.4298 18.1212C58.555 17.8139 58.6147 17.4836 58.605 17.1517Z" fill="#1D2130"/>
<path d="M63.4374 17.3637C63.4374 16.2626 63.7626 15.1862 64.3717 14.2708C64.9808 13.3555 65.8466 12.6422 66.8594 12.2213C67.8722 11.8004 68.9865 11.6908 70.0613 11.9064C71.1361 12.122 72.1231 12.6531 72.8974 13.4324C73.6717 14.2117 74.1984 15.2043 74.4109 16.2845C74.6235 17.3647 74.5123 18.484 74.0914 19.5007C73.6705 20.5174 72.9589 21.3858 72.0466 21.996C71.1342 22.6062 70.0622 22.9308 68.9662 22.9287C68.2373 22.9358 67.5143 22.7966 66.8396 22.5193C66.165 22.2421 65.5522 21.8322 65.0372 21.3139C64.5223 20.7956 64.1155 20.1792 63.8408 19.5009C63.5661 18.8226 63.429 18.096 63.4374 17.3637ZM71.3719 17.3637C71.3594 16.8881 71.2075 16.4269 70.9353 16.0377C70.663 15.6485 70.2825 15.3486 69.8413 15.1758C69.4002 15.0029 68.9181 14.9646 68.4554 15.0658C67.9927 15.167 67.5701 15.4031 67.2404 15.7445C66.9107 16.086 66.6886 16.5176 66.602 16.9852C66.5154 17.4529 66.5681 17.9359 66.7535 18.3736C66.9389 18.8113 67.2487 19.1843 67.6442 19.4459C68.0397 19.7075 68.5033 19.846 68.9768 19.8441C69.2988 19.8504 69.6188 19.7899 69.9165 19.6664C70.2143 19.5428 70.4835 19.3589 70.7073 19.1261C70.9311 18.8933 71.1046 18.6167 71.2172 18.3134C71.3297 18.0102 71.3788 17.6869 71.3613 17.3637H71.3719Z" fill="#1D2130"/>
<path d="M75.9617 9.30765C75.9617 8.93447 76.0718 8.56968 76.2782 8.2594C76.4846 7.94911 76.7779 7.70728 77.1211 7.56447C77.4642 7.42166 77.8419 7.3843 78.2062 7.4571C78.5705 7.5299 78.9051 7.7096 79.1678 7.97348C79.4305 8.23735 79.6093 8.57355 79.6818 8.93955C79.7542 9.30555 79.7171 9.68493 79.5749 10.0297C79.4328 10.3745 79.192 10.6691 78.8832 10.8765C78.5743 11.0838 78.2112 11.1944 77.8398 11.1944C77.3434 11.1889 76.8688 10.9884 76.5178 10.6357C76.1668 10.2831 75.9672 9.80635 75.9617 9.30765ZM76.2677 12.1166H79.433V22.6107H76.2677V12.1166Z" fill="#1D2130"/>
<path d="M92.9806 17.3637C93.0161 18.0616 92.9138 18.7597 92.6797 19.4178C92.4456 20.0758 92.0843 20.6809 91.6165 21.1981C91.1488 21.7153 90.5838 22.1345 89.9541 22.4315C89.3245 22.7285 88.6426 22.8975 87.9477 22.9287C87.358 22.9681 86.7671 22.8733 86.219 22.6512C85.6709 22.4291 85.1798 22.0855 84.7824 21.6461V26.8295H81.617V12.1167H84.7824V13.1025C85.1803 12.6644 85.6718 12.3224 86.22 12.1022C86.7681 11.8819 87.3588 11.789 87.9477 11.8305C88.6398 11.8618 89.319 12.0298 89.9465 12.3248C90.574 12.6198 91.1375 13.0361 91.6049 13.5499C92.0722 14.0637 92.4342 14.665 92.6703 15.3194C92.9063 15.9737 93.0118 16.6684 92.9806 17.3637ZM89.8153 17.3637C89.8028 16.8714 89.646 16.3937 89.3644 15.9906C89.0829 15.5874 88.6891 15.2767 88.2326 15.0974C87.776 14.9181 87.2769 14.8782 86.7979 14.9827C86.3188 15.0871 85.8811 15.3313 85.5396 15.6846C85.1981 16.0379 84.968 16.4846 84.8781 16.9687C84.7883 17.4529 84.8426 17.9529 85.0344 18.4061C85.2262 18.8593 85.5469 19.2456 85.9563 19.5165C86.3657 19.7874 86.8455 19.9309 87.3357 19.9289C87.6715 19.9432 88.0065 19.8861 88.3187 19.7612C88.631 19.6364 88.9134 19.4466 89.1475 19.2044C89.3817 18.9622 89.5622 18.673 89.6773 18.3558C89.7923 18.0385 89.8394 17.7005 89.8153 17.3637Z" fill="#1D2130"/>
<path d="M102.614 19.4625C102.614 21.8793 100.504 22.9075 98.2667 22.9075C97.3544 22.99 96.4384 22.7957 95.6371 22.3497C94.8359 21.9038 94.1861 21.2267 93.7719 20.4059L96.4941 18.8583C96.602 19.2365 96.8358 19.5661 97.1566 19.7918C97.4773 20.0176 97.8655 20.1258 98.2562 20.0985C99.0053 20.0985 99.3851 19.8653 99.3851 19.4413C99.3851 18.2859 94.2467 18.9007 94.2467 15.2649C94.2467 12.9753 96.167 11.8305 98.3406 11.8305C99.1668 11.7933 99.9876 11.9816 100.716 12.3754C101.444 12.7692 102.053 13.3538 102.477 14.0671L99.7544 15.5087C99.6342 15.2352 99.4377 15.0026 99.1886 14.8389C98.9396 14.6753 98.6487 14.5876 98.3511 14.5865C97.8025 14.5865 97.4754 14.7985 97.4754 15.1695C97.4754 16.3779 102.614 15.5829 102.614 19.4625Z" fill="#1D2130"/>
<path d="M114.083 12.1167V22.6107H110.917V21.6249C110.558 22.0613 110.101 22.4066 109.584 22.6331C109.068 22.8596 108.505 22.9608 107.942 22.9287C105.832 22.9287 104.028 21.4129 104.028 18.5827V12.1167H107.193V18.1057C107.168 18.3561 107.198 18.6089 107.279 18.8467C107.361 19.0845 107.494 19.3017 107.667 19.4831C107.841 19.6645 108.051 19.8059 108.285 19.8975C108.518 19.9891 108.768 20.0288 109.018 20.0137C110.158 20.0137 110.96 19.3353 110.96 17.8937V12.1167H114.083Z" fill="#1D2130"/>
<path d="M132.02 16.1659V22.6107H128.854V16.4415C128.854 15.3815 128.359 14.7243 127.356 14.7243C126.354 14.7243 125.721 15.4557 125.721 16.6959V22.6107H122.555V16.4415C122.555 15.3815 122.059 14.7243 121.057 14.7243C120.055 14.7243 119.422 15.4557 119.422 16.6959V22.6107H116.256V12.1167H119.422V13.0813C119.749 12.6551 120.178 12.3176 120.668 12.0993C121.157 11.8809 121.694 11.7885 122.228 11.8305C122.764 11.8024 123.297 11.9147 123.776 12.1563C124.255 12.3979 124.664 12.7605 124.961 13.2085C125.309 12.7404 125.769 12.3685 126.298 12.1276C126.828 11.8866 127.41 11.7844 127.989 11.8305C130.458 11.8305 132.02 13.5477 132.02 16.1659Z" fill="#1D2130"/>
<path d="M14.3219 4.53771V0.0327148H0.18335V30.9847H14.3219V26.4797C11.4256 26.4797 8.64794 25.3238 6.59997 23.2664C4.55199 21.2089 3.40145 18.4184 3.40145 15.5087C3.40145 12.599 4.55199 9.80851 6.59997 7.75104C8.64794 5.69358 11.4256 4.53771 14.3219 4.53771Z" fill="#1D2130"/>
<path d="M14.3219 4.53771V26.4797C17.2182 26.4797 19.9957 25.3238 22.0437 23.2664C24.0917 21.2089 25.2422 18.4184 25.2422 15.5087C25.2422 12.599 24.0917 9.80851 22.0437 7.75105C19.9957 5.69359 17.2182 4.53771 14.3219 4.53771Z" fill="#1D2130"/>
<path d="M134.679 12.0531C135.961 12.0531 137 11.009 137 9.72109C137 8.43316 135.961 7.38908 134.679 7.38908C133.397 7.38908 132.357 8.43316 132.357 9.72109C132.357 11.009 133.397 12.0531 134.679 12.0531Z" fill="#1D2130"/>
</g>
</svg>
