<?xml version="1.0" encoding="UTF-8"?>
<svg width="127" height="29" viewBox="0 0 127 29" fill="none" version="1.1" xmlns="http://www.w3.org/2000/svg" xmlns:xlink="http://www.w3.org/1999/xlink">
<g id="Logo" opacity="0.6">
<path d="M37.0633 8.29332H40.2286V21.0298H37.0633V8.29332ZM41.4842 16.2208C41.4842 13.0708 43.4256 11.1913 46.4222 11.1913C49.4187 11.1913 51.3601 13.0708 51.3601 16.2208C51.3601 19.3708 49.4609 21.2608 46.4222 21.2608C43.3834 21.2608 41.4842 19.4233 41.4842 16.2208ZM48.1842 16.2208C48.1842 14.4883 47.4984 13.4698 46.4222 13.4698C45.3459 13.4698 44.6707 14.5198 44.6707 16.2208C44.6707 17.9218 45.3354 18.9508 46.4222 18.9508C47.5089 18.9508 48.1842 17.9848 48.1842 16.2313V16.2208ZM52.5524 21.6493H55.5911C55.7357 21.969 55.9802 22.2337 56.2882 22.404C56.5962 22.5743 56.9512 22.641 57.3004 22.5943C58.5032 22.5943 59.1363 21.9433 59.1363 20.9983V19.2343H59.073C58.8208 19.775 58.4116 20.228 57.8981 20.5349C57.3847 20.8419 56.7906 20.9886 56.1925 20.9563C53.8818 20.9563 52.3519 19.2028 52.3519 16.1893C52.3519 13.1758 53.808 11.2753 56.2347 11.2753C56.8515 11.2513 57.461 11.4154 57.9815 11.7457C58.502 12.0759 58.9086 12.5566 59.1468 13.1233V11.3698H62.3122V20.9248C62.3122 23.2243 60.2758 24.6523 57.2687 24.6523C54.4727 24.6523 52.7317 23.4028 52.5524 21.6598V21.6493ZM59.1468 16.2103C59.1468 14.6773 58.4399 13.7113 57.3215 13.7113C56.2031 13.7113 55.5172 14.6668 55.5172 16.2103C55.5172 17.7538 56.1925 18.6253 57.3215 18.6253C58.4505 18.6253 59.1468 17.7748 59.1468 16.2208V16.2103ZM63.5045 16.2103C63.5045 13.0603 65.4459 11.1808 68.4424 11.1808C71.4389 11.1808 73.3909 13.0603 73.3909 16.2103C73.3909 19.3603 71.4917 21.2503 68.4424 21.2503C65.3931 21.2503 63.5045 19.4233 63.5045 16.2208V16.2103ZM70.2044 16.2103C70.2044 14.4778 69.5186 13.4593 68.4424 13.4593C67.3662 13.4593 66.7437 14.5198 66.7437 16.2313C66.7437 17.9428 67.4084 18.9613 68.4846 18.9613C69.5608 18.9613 70.2044 17.9848 70.2044 16.2313V16.2103ZM74.5937 9.08082C74.5854 8.76278 74.6722 8.44946 74.843 8.18056C75.0139 7.91166 75.2612 7.6993 75.5534 7.5704C75.8457 7.44151 76.1699 7.40187 76.4848 7.45653C76.7998 7.51119 77.0913 7.65767 77.3225 7.87741C77.5537 8.09715 77.7141 8.38026 77.7834 8.69084C77.8527 9.00142 77.8278 9.32548 77.7118 9.62195C77.5958 9.91842 77.394 10.174 77.1319 10.3561C76.8699 10.5383 76.5593 10.639 76.2397 10.6453C76.0278 10.6598 75.8152 10.6305 75.6152 10.5593C75.4152 10.4882 75.2322 10.3766 75.0777 10.2316C74.9231 10.0867 74.8003 9.91149 74.717 9.71706C74.6337 9.52263 74.5918 9.31317 74.5937 9.10182V9.08082ZM74.5937 11.3908H77.759V21.0298H74.5937V11.3908ZM89.2492 16.2103C89.2492 19.3603 87.8459 21.1558 85.4403 21.1558C84.8234 21.1952 84.2093 21.0452 83.6809 20.7259C83.1525 20.4067 82.7354 19.9336 82.486 19.3708H82.4226V24.1168H79.2573V11.3698H82.4226V13.0918H82.486C82.7238 12.5197 83.133 12.0344 83.6578 11.7018C84.1826 11.3693 84.7976 11.2057 85.4192 11.2333C87.8459 11.2753 89.2914 13.0813 89.2914 16.2313L89.2492 16.2103ZM86.0839 16.2103C86.0839 14.6773 85.377 13.7008 84.2691 13.7008C83.1612 13.7008 82.4543 14.6878 82.4437 16.2103C82.4332 17.7328 83.1612 18.7093 84.2691 18.7093C85.377 18.7093 86.0839 17.7538 86.0839 16.2313V16.2103ZM94.6831 11.1703C97.3103 11.1703 98.9035 12.4093 98.9774 14.3938H96.0969C96.0969 13.7113 95.5272 13.2808 94.6514 13.2808C93.7757 13.2808 93.3853 13.6168 93.3853 14.1103C93.3853 14.6038 93.7335 14.7613 94.4404 14.9083L96.4662 15.3178C98.3971 15.7273 99.2201 16.5043 99.2201 17.9638C99.2201 19.9588 97.3947 21.2398 94.7042 21.2398C92.0136 21.2398 90.2516 19.9588 90.1144 17.9953H93.1637C93.2587 18.7093 93.8284 19.1293 94.7569 19.1293C95.6854 19.1293 96.1075 18.8248 96.1075 18.3208C96.1075 17.8168 95.812 17.7118 95.0524 17.5543L93.227 17.1658C91.3384 16.7773 90.3465 15.7798 90.3465 14.3098C90.3677 12.4198 92.0664 11.1913 94.6831 11.1913V11.1703ZM109.782 21.0088H106.732V19.2133H106.669C106.502 19.8161 106.132 20.3438 105.621 20.7086C105.111 21.0734 104.49 21.2535 103.863 21.2188C103.382 21.246 102.9 21.1702 102.452 20.9964C102.003 20.8227 101.596 20.5551 101.26 20.2117C100.924 19.8683 100.666 19.4571 100.503 19.0059C100.341 18.5547 100.277 18.074 100.317 17.5963V11.3698H103.483V16.8718C103.483 18.0163 104.074 18.6253 105.055 18.6253C105.285 18.6258 105.512 18.5773 105.722 18.4831C105.932 18.3889 106.119 18.2512 106.271 18.0792C106.423 17.9072 106.536 17.7048 106.603 17.4857C106.67 17.2666 106.689 17.0358 106.659 16.8088V11.3698H109.824L109.782 21.0088ZM111.312 11.3698H114.371V13.2283H114.435C114.603 12.6335 114.964 12.1108 115.463 11.7423C115.961 11.3737 116.568 11.1799 117.189 11.1913C117.82 11.141 118.448 11.3291 118.946 11.7182C119.445 12.1073 119.778 12.6689 119.879 13.2913H119.942C120.134 12.6623 120.53 12.1146 121.069 11.7344C121.608 11.3541 122.258 11.1631 122.918 11.1913C123.348 11.1769 123.777 11.2528 124.176 11.4141C124.575 11.5753 124.936 11.8183 125.234 12.1273C125.533 12.4363 125.763 12.8043 125.909 13.2074C126.055 13.6106 126.115 14.0398 126.083 14.4673V21.0298H122.918V15.3073C122.918 14.2573 122.443 13.7743 121.557 13.7743C121.359 13.7727 121.163 13.8132 120.983 13.8932C120.802 13.9732 120.641 14.0908 120.51 14.2381C120.379 14.3854 120.281 14.5589 120.224 14.747C120.166 14.9351 120.149 15.1333 120.175 15.3283V21.0298H117.168V15.2653C117.168 14.2993 116.693 13.7743 115.828 13.7743C115.628 13.7744 115.43 13.8166 115.248 13.8982C115.066 13.9799 114.903 14.099 114.77 14.2479C114.637 14.3967 114.538 14.5718 114.478 14.7617C114.419 14.9515 114.4 15.1518 114.424 15.3493V21.0298H111.259L111.312 11.3698Z" fill="#1D2130"/>
<path d="M28.2109 8.87088C27.674 7.64906 26.9633 6.51041 26.1007 5.48988C24.8255 3.93624 23.2342 2.66894 21.4315 1.77142C19.6287 0.873891 17.6554 0.366478 15.6413 0.282574C13.6273 0.198671 11.6183 0.540177 9.74645 1.28462C7.87461 2.02907 6.18242 3.15957 4.78126 4.60172C3.38009 6.04387 2.30171 7.76497 1.6171 9.65174C0.932485 11.5385 0.657159 13.5482 0.809245 15.5485C0.96133 17.5488 1.53738 19.4943 2.49947 21.2571C3.46157 23.0199 4.78789 24.56 6.39116 25.7759C7.4199 26.5717 8.55662 27.2186 9.76753 27.6974C11.4652 28.3897 13.2822 28.7464 15.117 28.7474C18.9042 28.739 22.5336 27.2367 25.2096 24.5698C27.8856 21.9028 29.3899 18.2888 29.3926 14.5199C29.3954 12.5758 28.993 10.6523 28.2109 8.87088ZM15.1064 3.16938C16.754 3.1692 18.3817 3.52757 19.8755 4.21938C19.5113 4.376 19.1283 4.4854 18.736 4.54488C17.4452 4.73083 16.2494 5.32721 15.3271 6.24501C14.4048 7.16281 13.8055 8.3528 13.6187 9.63738C13.5367 10.3578 13.2074 11.028 12.6865 11.5349C12.1656 12.0418 11.4849 12.3544 10.7593 12.4199C9.4685 12.6058 8.27271 13.2022 7.35044 14.12C6.42817 15.0378 5.82888 16.2278 5.64203 17.5124C5.57877 18.1974 5.28508 18.8411 4.80849 19.3394C3.98619 17.6103 3.61679 15.7023 3.73467 13.793C3.85255 11.8836 4.45387 10.035 5.48267 8.41911C6.51148 6.80322 7.93434 5.47257 9.61883 4.55102C11.3033 3.62947 13.1947 3.14695 15.117 3.14838L15.1064 3.16938ZM6.38061 21.8699C6.50722 21.7544 6.63384 21.6494 6.76045 21.5234C7.69914 20.6177 8.30167 19.4222 8.46974 18.1319C8.53788 17.4066 8.86329 16.7291 9.38768 16.2209C9.89229 15.6982 10.5715 15.377 11.2974 15.3179C12.5883 15.1319 13.7841 14.5355 14.7063 13.6177C15.6286 12.6999 16.2279 11.51 16.4147 10.2254C16.4604 9.46677 16.7875 8.75206 17.3327 8.21988C17.8498 7.70732 18.5354 7.39784 19.2636 7.34838C20.4494 7.18601 21.5554 6.66138 22.4289 5.84688C23.4235 6.66805 24.2662 7.65592 24.919 8.76588C24.8789 8.8198 24.8329 8.8691 24.7818 8.91288C24.2782 9.44018 23.5998 9.76838 22.872 9.83688C21.5799 10.0196 20.3823 10.6149 19.4594 11.5333C18.5366 12.4517 17.9383 13.6435 17.7547 14.9294C17.6804 15.6522 17.3572 16.3273 16.8399 16.8401C16.3227 17.353 15.6431 17.6721 14.9165 17.7434C13.6219 17.9279 12.4216 18.5231 11.494 19.4405C10.5664 20.358 9.96093 21.5487 9.76753 22.8359C9.71074 23.349 9.53365 23.8418 9.25052 24.2744C8.16797 23.6348 7.19841 22.8224 6.38061 21.8699ZM15.1064 25.9229C14.0357 25.924 12.9702 25.7756 11.9411 25.4819C12.2931 24.8288 12.522 24.117 12.6163 23.3819C12.6903 22.6606 13.012 21.9869 13.5271 21.4742C14.0422 20.9616 14.7193 20.6415 15.444 20.5679C16.7368 20.384 17.935 19.7886 18.8593 18.8706C19.7836 17.9526 20.3845 16.7615 20.5719 15.4754C20.6458 14.7541 20.9675 14.0804 21.4827 13.5677C21.9978 13.0551 22.6748 12.735 23.3996 12.6614C24.3724 12.5354 25.2997 12.175 26.1007 11.6114C26.5455 13.2892 26.5982 15.0461 26.2547 16.7473C25.9113 18.4485 25.1808 20.0488 24.1193 21.4255C23.0579 22.8021 21.6936 23.9185 20.1313 24.689C18.569 25.4595 16.8501 25.8636 15.1064 25.8704V25.9229Z" fill="#1D2130"/>
</g>
</svg>
