<?xml version="1.0" encoding="UTF-8"?>
<svg width="143" height="29" viewBox="0 0 143 29" fill="none" version="1.1" xmlns="http://www.w3.org/2000/svg" xmlns:xlink="http://www.w3.org/1999/xlink">
<g id="Logo" opacity="0.6">
<path d="M21.3558 12.7972C20.9581 13.1975 20.6535 13.6807 20.4638 14.2123C20.274 14.7439 20.2038 15.3108 20.2581 15.8726L20.2392 15.8537C20.295 16.5151 20.2058 17.1806 19.978 17.8039C19.7502 18.4273 19.3891 18.9933 18.92 19.4626C18.451 19.9319 17.8852 20.2932 17.2622 20.5211C16.6391 20.7491 15.9739 20.8382 15.3129 20.7824L15.3318 20.8013C14.5411 20.7277 13.7469 20.8998 13.0576 21.2943C12.3683 21.6888 11.8173 22.2864 11.4799 23.0056C11.1424 23.7248 11.0349 24.5306 11.172 25.3132C11.3091 26.0958 11.6841 26.8171 12.2459 27.3786C12.8076 27.9402 13.5289 28.3147 14.3112 28.4511C15.0935 28.5876 15.8989 28.4793 16.6174 28.141C17.336 27.8028 17.9328 27.251 18.3264 26.561C18.7201 25.871 18.8914 25.0762 18.8171 24.2852L18.8371 24.3041C18.7813 23.6428 18.8704 22.9772 19.0982 22.3539C19.3261 21.7306 19.6871 21.1645 20.1562 20.6952C20.6253 20.2259 21.191 19.8647 21.8141 19.6367C22.4371 19.4088 23.1023 19.3196 23.7633 19.3754L23.7434 19.3565C24.3893 19.4146 25.0394 19.3087 25.6335 19.0485C26.2276 18.7883 26.7464 18.3823 27.1419 17.868C27.5373 17.3538 27.7967 16.748 27.8958 16.1068C27.995 15.4656 27.9308 14.8098 27.7091 14.2C27.4874 13.5903 27.1155 13.0464 26.6278 12.6187C26.1401 12.191 25.5524 11.8935 24.9192 11.7536C24.2859 11.6137 23.6276 11.636 23.0052 11.8184C22.3829 12.0008 21.8166 12.3375 21.359 12.7972H21.3558Z" fill="#1D2130"/>
<path d="M13.6137 18.3254L13.5938 18.3065C14.1556 18.3631 14.723 18.2941 15.2549 18.1045C15.7868 17.9149 16.2699 17.6093 16.6694 17.21C17.0688 16.8107 17.3745 16.3276 17.5645 15.7955C17.7544 15.2635 17.8238 14.6959 17.7676 14.1338L17.7875 14.1527C17.7317 13.4913 17.8209 12.8258 18.0487 12.2024C18.2765 11.5791 18.6376 11.0131 19.1067 10.5438C19.5757 10.0744 20.1415 9.71322 20.7645 9.48527C21.3876 9.25732 22.0528 9.16814 22.7138 9.22397L22.6939 9.20507C23.4846 9.27937 24.2791 9.1078 24.9688 8.71378C25.6585 8.31975 26.21 7.72245 26.5479 7.00333C26.8859 6.28422 26.9939 5.47831 26.8572 4.69553C26.7205 3.91275 26.3458 3.1912 25.7842 2.62931C25.2226 2.06742 24.5014 1.69254 23.719 1.5558C22.9366 1.41905 22.1311 1.52711 21.4123 1.86523C20.6936 2.20335 20.0966 2.75507 19.7027 3.44513C19.3089 4.1352 19.1374 4.93001 19.2117 5.72117L19.1928 5.70122C19.2488 6.3626 19.1598 7.02824 18.932 7.65165C18.7042 8.27506 18.3432 8.84121 17.8741 9.31055C17.405 9.77989 16.8391 10.1411 16.216 10.369C15.5929 10.5969 14.9276 10.6859 14.2665 10.6299L14.2854 10.6499C13.7236 10.5932 13.1562 10.6622 12.6243 10.8518C12.0924 11.0415 11.6093 11.347 11.2098 11.7463C10.8104 12.1456 10.5047 12.6288 10.3147 13.1608C10.1248 13.6928 10.0554 14.2604 10.1116 14.8226L10.0927 14.8037C10.1483 15.465 10.0591 16.1305 9.83118 16.7537C9.60328 17.3769 9.24222 17.9429 8.77319 18.4122C8.30416 18.8814 7.73844 19.2427 7.11551 19.4707C6.49258 19.6987 5.82743 19.788 5.16645 19.7324L5.18534 19.7513C4.39458 19.677 3.60015 19.8485 2.91043 20.2426C2.2207 20.6366 1.66925 21.2339 1.3313 21.953C0.993348 22.6721 0.885342 23.478 1.02202 24.2608C1.15869 25.0436 1.53339 25.7651 2.09501 26.327C2.65662 26.8889 3.37781 27.2638 4.16021 27.4006C4.94261 27.5373 5.74812 27.4292 6.46688 27.0911C7.18563 26.753 7.78264 26.2013 8.17648 25.5112C8.57031 24.8211 8.74179 24.0263 8.66753 23.2352L8.68747 23.2541C8.63167 22.5927 8.7208 21.9272 8.94864 21.3038C9.17647 20.6805 9.53753 20.1145 10.0066 19.6452C10.4757 19.1758 11.0415 18.8146 11.6645 18.5867C12.2875 18.3587 12.9527 18.2696 13.6137 18.3254Z" fill="#1D2130"/>
<path d="M6.58015 16.2181C6.97793 15.8178 7.28247 15.3346 7.47205 14.803C7.66163 14.2713 7.73156 13.7044 7.67686 13.1426L7.6968 13.1615C7.64096 12.5 7.73013 11.8342 7.95809 11.2107C8.18605 10.5872 8.54729 10.0211 9.0166 9.55172C9.48591 9.08238 10.052 8.72119 10.6752 8.49339C11.2985 8.26558 11.964 8.17665 12.6252 8.2328L12.6052 8.2139C13.3957 8.28799 14.1898 8.11633 14.8792 7.72234C15.5686 7.32834 16.1198 6.73118 16.4575 6.01229C16.7953 5.2934 16.9032 4.48779 16.7665 3.7053C16.6299 2.92281 16.2553 2.20154 15.6939 1.63985C15.1325 1.07817 14.4115 0.703401 13.6294 0.566666C12.8473 0.429931 12.0421 0.537882 11.3236 0.875797C10.605 1.21371 10.0082 1.76514 9.61437 2.45489C9.22057 3.14463 9.049 3.93912 9.12305 4.73L9.10416 4.7111C9.15996 5.37244 9.07083 6.03801 8.84299 6.66133C8.61516 7.28465 8.2541 7.85072 7.78503 8.32002C7.31596 8.78933 6.75017 9.15056 6.12715 9.37851C5.50413 9.60645 4.8389 9.69563 4.17789 9.6398L4.19677 9.6587C3.55089 9.60075 2.90084 9.70685 2.30685 9.96717C1.71286 10.2275 1.19416 10.6336 0.79881 11.1479C0.403458 11.6621 0.144249 12.2679 0.0452039 12.9091C-0.0538415 13.5503 0.0104804 14.2061 0.23221 14.8158C0.453939 15.4255 0.825902 15.9693 1.31363 16.3969C1.80136 16.8245 2.38907 17.122 3.0223 17.2618C3.65553 17.4016 4.3138 17.3793 4.9361 17.1968C5.55841 17.0144 6.12461 16.6777 6.58225 16.2181H6.58015Z" fill="#1D2130"/>
<path d="M39.09 5.74532H42.2069V20.921H39.09V5.74532Z" fill="#1D2130"/>
<path d="M43.9722 15.7245C43.9678 14.634 44.2871 13.5666 44.8895 12.6577C45.4919 11.7488 46.3504 11.0392 47.3562 10.6189C48.362 10.1985 49.4699 10.0862 50.5395 10.2963C51.6092 10.5064 52.5924 11.0294 53.3647 11.799C54.1371 12.5686 54.6637 13.5502 54.878 14.6195C55.0923 15.6888 54.9845 16.7977 54.5684 17.8057C54.1522 18.8137 53.4465 19.6754 52.5404 20.2818C51.6344 20.8881 50.5689 21.2118 49.4788 21.2118C48.7553 21.2201 48.0373 21.084 47.3669 20.8114C46.6965 20.5388 46.0872 20.1353 45.5745 19.6244C45.0618 19.1135 44.656 18.5055 44.3809 17.8359C44.1058 17.1663 43.9668 16.4485 43.9722 15.7245ZM51.8685 15.7245C51.8555 15.2545 51.7043 14.7986 51.4338 14.4141C51.1632 14.0295 50.7854 13.7332 50.3475 13.5623C49.9096 13.3914 49.4311 13.3535 48.9718 13.4532C48.5124 13.5529 48.0927 13.7859 47.7649 14.123C47.4372 14.4601 47.2161 14.8863 47.1292 15.3485C47.0423 15.8106 47.0935 16.2882 47.2764 16.7214C47.4593 17.1546 47.7657 17.5242 48.1575 17.7841C48.5492 18.044 49.0088 18.1826 49.4788 18.1826C49.8007 18.1912 50.1209 18.133 50.4192 18.0116C50.7175 17.8902 50.9874 17.7083 51.2119 17.4774C51.4365 17.2464 51.6107 16.9714 51.7237 16.6698C51.8367 16.3681 51.886 16.0462 51.8685 15.7245Z" fill="#1D2130"/>
<path d="M67.4082 10.527V20.397C67.4082 23.8893 64.6858 25.3656 61.9225 25.3656C60.9496 25.4385 59.9754 25.2419 59.1068 24.7974C58.2382 24.3528 57.5087 23.6776 56.9983 22.8456L59.6577 21.3074C59.8722 21.7411 60.214 22.0988 60.6373 22.3328C61.0606 22.5668 61.5453 22.6659 62.0264 22.6167C62.3339 22.6594 62.647 22.6323 62.9427 22.5375C63.2383 22.4427 63.5088 22.2826 63.7342 22.069C63.9596 21.8555 64.1342 21.594 64.2449 21.3039C64.3557 21.0137 64.3998 20.7024 64.3741 20.3928V19.4426C64.0091 19.8894 63.5445 20.2444 63.0176 20.4791C62.4907 20.7138 61.9161 20.8216 61.34 20.7939C59.9692 20.7507 58.669 20.1755 57.7146 19.19C56.7602 18.2045 56.2265 16.8862 56.2265 15.514C56.2265 14.1418 56.7602 12.8235 57.7146 11.838C58.669 10.8526 59.9692 10.2773 61.34 10.2341C61.9161 10.2064 62.4907 10.3143 63.0176 10.549C63.5445 10.7836 64.0091 11.1386 64.3741 11.5854V10.5249L67.4082 10.527ZM64.3752 15.5156C64.3961 15.013 64.2662 14.5157 64.0023 14.0876C63.7383 13.6595 63.3523 13.3202 62.894 13.1134C62.4357 12.9066 61.926 12.8418 61.4306 12.9272C60.9351 13.0127 60.4766 13.2446 60.1139 13.593C59.7513 13.9414 59.5012 14.3904 59.3958 14.8823C59.2904 15.3741 59.3345 15.8862 59.5225 16.3528C59.7105 16.8193 60.0337 17.2189 60.4506 17.5001C60.8674 17.7813 61.3589 17.9312 61.8616 17.9306C62.1891 17.9535 62.5178 17.9075 62.8264 17.7955C63.1351 17.6836 63.4169 17.5082 63.6536 17.2807C63.8904 17.0532 64.077 16.7786 64.2012 16.4746C64.3255 16.1706 64.3847 15.8439 64.3752 15.5156Z" fill="#1D2130"/>
<path d="M69.1734 15.7245C69.169 14.634 69.4882 13.5666 70.0907 12.6577C70.6931 11.7488 71.5516 11.0392 72.5574 10.6189C73.5632 10.1985 74.6711 10.0862 75.7407 10.2963C76.8103 10.5064 77.7936 11.0294 78.5659 11.799C79.3382 12.5686 79.8649 13.5502 80.0792 14.6195C80.2934 15.6888 80.1857 16.7977 79.7695 17.8057C79.3534 18.8137 78.6476 19.6754 77.7416 20.2818C76.8356 20.8881 75.77 21.2118 74.68 21.2118C73.9564 21.2201 73.2385 21.084 72.5681 20.8114C71.8977 20.5388 71.2884 20.1353 70.7757 19.6244C70.263 19.1135 69.8572 18.5055 69.5821 17.8359C69.307 17.1663 69.168 16.4485 69.1734 15.7245ZM77.0697 15.7245C77.0567 15.2545 76.9055 14.7986 76.6349 14.4141C76.3644 14.0295 75.9866 13.7332 75.5487 13.5623C75.1108 13.3914 74.6323 13.3535 74.1729 13.4532C73.7136 13.5529 73.2938 13.7859 72.9661 14.123C72.6384 14.4601 72.4172 14.8863 72.3303 15.3485C72.2435 15.8106 72.2946 16.2882 72.4775 16.7214C72.6604 17.1546 72.9669 17.5242 73.3586 17.7841C73.7504 18.044 74.21 18.1826 74.68 18.1826C75.0019 18.1912 75.3221 18.133 75.6204 18.0116C75.9187 17.8902 76.1886 17.7083 76.4131 17.4774C76.6376 17.2464 76.8119 16.9714 76.9249 16.6698C77.0379 16.3681 77.0872 16.0462 77.0697 15.7245Z" fill="#1D2130"/>
<path d="M81.6402 7.74138C81.6402 7.37131 81.7499 7.00955 81.9554 6.70185C82.1609 6.39415 82.4529 6.15433 82.7947 6.01271C83.1364 5.87109 83.5124 5.83403 83.8752 5.90623C84.238 5.97843 84.5712 6.15664 84.8328 6.41831C85.0943 6.67999 85.2724 7.01339 85.3446 7.37634C85.4167 7.7393 85.3797 8.11552 85.2382 8.45742C85.0966 8.79932 84.8569 9.09154 84.5494 9.29714C84.2418 9.50274 83.8802 9.61248 83.5103 9.61248C83.0159 9.60756 82.543 9.40884 82.1934 9.05901C81.8437 8.70917 81.6451 8.2361 81.6402 7.74138ZM81.955 10.527H85.073V20.922H81.9508L81.955 10.527Z" fill="#1D2130"/>
<path d="M98.5317 15.7245C98.5677 16.4115 98.4676 17.0989 98.2372 17.747C98.0068 18.3952 97.6506 18.9914 97.1891 19.5013C96.7275 20.0113 96.1698 20.4249 95.548 20.7185C94.9261 21.012 94.2524 21.1797 93.5655 21.2118C92.9879 21.2434 92.4105 21.1459 91.8752 20.9265C91.3399 20.7071 90.8601 20.3713 90.4706 19.9434V25.079H87.3536V10.527H90.4706V11.5035C90.8603 11.0759 91.3401 10.7404 91.8754 10.5212C92.4107 10.302 92.988 10.2047 93.5655 10.2362C94.2525 10.2682 94.9264 10.4358 95.5484 10.7293C96.1704 11.0229 96.7282 11.4366 97.1898 11.9467C97.6513 12.4568 98.0075 13.0532 98.2378 13.7015C98.4681 14.3499 98.568 15.0374 98.5317 15.7245ZM95.4147 15.7245C95.4025 15.238 95.2472 14.7659 94.9682 14.3673C94.6891 13.9687 94.2988 13.6613 93.846 13.4836C93.3932 13.3058 92.898 13.2657 92.4225 13.3681C91.947 13.4705 91.5122 13.711 91.1727 14.0594C90.8331 14.4078 90.6037 14.8487 90.5134 15.3268C90.423 15.805 90.4756 16.2992 90.6646 16.7476C90.8536 17.196 91.1705 17.5787 91.5758 17.8478C91.9811 18.1168 92.4568 18.2603 92.9432 18.2603C93.2771 18.2751 93.6104 18.2192 93.9212 18.0962C94.232 17.9731 94.5133 17.7858 94.7467 17.5463C94.9801 17.3069 95.1602 17.0208 95.2753 16.7069C95.3905 16.3929 95.438 16.0581 95.4147 15.7245Z" fill="#1D2130"/>
<path d="M108.15 17.8025C108.15 20.1933 106.073 21.2118 103.829 21.2118C102.923 21.294 102.012 21.1022 101.216 20.6612C100.42 20.2202 99.7736 19.5502 99.3618 18.738L102.062 17.1998C102.171 17.5752 102.406 17.9018 102.727 18.125C103.048 18.3482 103.435 18.4545 103.825 18.4262C104.572 18.4262 104.947 18.1973 104.947 17.7825C104.947 16.638 99.8351 17.2418 99.8351 13.6456C99.8351 11.3786 101.747 10.2362 103.908 10.2362C104.72 10.2105 105.525 10.4032 106.237 10.7944C106.95 11.1856 107.544 11.7608 107.959 12.4601L105.3 13.8944C105.183 13.6221 104.989 13.3902 104.742 13.2276C104.494 13.0649 104.204 12.9788 103.908 12.9798C103.368 12.9798 103.035 13.1898 103.035 13.5615C103.039 14.747 108.15 13.9563 108.15 17.8025Z" fill="#1D2130"/>
<path d="M119.536 10.5271V20.9221H116.419V19.9445C116.059 20.3759 115.603 20.7157 115.087 20.9362C114.57 21.1567 114.009 21.2515 113.449 21.2129C111.35 21.2129 109.566 19.7167 109.566 16.9079V10.5271H112.683V16.4512C112.657 16.6987 112.685 16.949 112.765 17.1846C112.846 17.4202 112.977 17.6354 113.149 17.8153C113.321 17.9952 113.53 18.1354 113.761 18.2262C113.993 18.317 114.242 18.3563 114.49 18.3412C115.633 18.3412 116.422 17.6765 116.422 16.2002V10.5302L119.536 10.5271Z" fill="#1D2130"/>
<path d="M137.409 14.5391V20.921H134.292V14.809C134.292 13.7695 133.793 13.1048 132.796 13.1048C131.757 13.1048 131.175 13.8325 131.175 15.0589V20.921H128.059V14.809C128.059 13.7695 127.56 13.1048 126.562 13.1048C125.523 13.1048 124.942 13.8325 124.942 15.0589V20.921H121.825V10.526H124.942V11.4815C125.265 11.0576 125.689 10.7215 126.176 10.5038C126.662 10.286 127.195 10.1937 127.726 10.2352C128.26 10.2091 128.791 10.3217 129.268 10.562C129.744 10.8023 130.151 11.1622 130.448 11.6065C130.793 11.1417 131.251 10.7721 131.777 10.5323C132.304 10.2925 132.883 10.1902 133.461 10.2352C135.846 10.2362 137.409 11.9404 137.409 14.5391Z" fill="#1D2130"/>
<path d="M140.045 10.463C141.323 10.463 142.358 9.42692 142.358 8.14882C142.358 6.87072 141.323 5.83462 140.045 5.83462C138.768 5.83462 137.732 6.87072 137.732 8.14882C137.732 9.42692 138.768 10.463 140.045 10.463Z" fill="#1D2130"/>
</g>
</svg>
