<?xml version="1.0" encoding="UTF-8"?>
<svg width="124" height="25" viewBox="0 0 124 25" fill="none" version="1.1" xmlns="http://www.w3.org/2000/svg" xmlns:xlink="http://www.w3.org/1999/xlink">
<g id="Logo" opacity="0.6">
<path d="M40.0896 20.202C39.4654 20.2355 38.848 20.0596 38.337 19.7028C38.1234 19.5459 37.9517 19.3399 37.8365 19.1025C37.7213 18.8652 37.6661 18.6036 37.6758 18.3404V8.69957C37.6707 8.65876 37.6751 8.61732 37.6886 8.57843C37.702 8.53953 37.7243 8.5042 37.7537 8.47512C37.783 8.44603 37.8187 8.42397 37.8579 8.4106C37.8972 8.39723 37.939 8.39292 37.9802 8.39797H39.7433C39.9427 8.39797 40.0371 8.50197 40.0371 8.69957V17.5916C40.0371 17.9868 40.2155 18.1844 40.5828 18.1844C40.7385 18.1907 40.8943 18.1732 41.0446 18.1324C41.2545 18.1324 41.3699 18.1948 41.3804 18.382L41.5379 19.682C41.5454 19.7199 41.5447 19.7589 41.5358 19.7965C41.5268 19.8341 41.5098 19.8694 41.4859 19.9C41.4621 19.9305 41.4319 19.9556 41.3974 19.9736C41.3629 19.9917 41.3249 20.0021 41.286 20.0044C40.8998 20.1308 40.4963 20.1974 40.0896 20.202Z" fill="#1D2130"/>
<path d="M50.0071 19.0892C49.1212 19.8146 48.0079 20.2114 46.8587 20.2114C45.7095 20.2114 44.5962 19.8146 43.7103 19.0892C42.9316 18.3102 42.4948 17.2581 42.4948 16.1616C42.4948 15.0652 42.9316 14.013 43.7103 13.234C44.5979 12.5124 45.7106 12.118 46.8587 12.118C48.0068 12.118 49.1194 12.5124 50.0071 13.234C50.7678 14.0202 51.1925 15.0672 51.1925 16.1564C51.1925 17.2456 50.7678 18.2927 50.0071 19.0788V19.0892ZM45.3684 17.7164C45.7796 18.0855 46.3145 18.2899 46.8692 18.2899C47.4239 18.2899 47.9588 18.0855 48.3699 17.7164C48.742 17.2925 48.9469 16.7495 48.9469 16.1876C48.9469 15.6257 48.742 15.0828 48.3699 14.6588C47.9588 14.2898 47.4239 14.0854 46.8692 14.0854C46.3145 14.0854 45.7796 14.2898 45.3684 14.6588C44.9963 15.0828 44.7914 15.6257 44.7914 16.1876C44.7914 16.7495 44.9963 17.2925 45.3684 17.7164Z" fill="#1D2130"/>
<path d="M60.9006 12.3812C61.1 12.3812 61.1945 12.4852 61.1945 12.6828V20.1396C61.2128 20.6429 61.1178 21.1439 60.9162 21.6062C60.7147 22.0685 60.4118 22.4806 60.0295 22.8124C59.181 23.5294 58.0897 23.901 56.9756 23.8524C55.9693 23.8874 54.9764 23.6151 54.1315 23.0724C53.7707 22.8376 53.4625 22.5318 53.226 22.174C52.9895 21.8161 52.8297 21.414 52.7567 20.9924C52.7567 20.7844 52.7567 20.6908 53.0401 20.6908H54.8032C54.878 20.6933 54.9506 20.7172 55.012 20.7597C55.0734 20.8021 55.1212 20.8613 55.1495 20.93C55.2638 21.2458 55.4918 21.5088 55.7897 21.6684C56.1527 21.854 56.5567 21.9469 56.9651 21.9388C57.2115 21.9522 57.4581 21.9167 57.6906 21.8346C57.923 21.7525 58.1366 21.6252 58.3189 21.4604C58.4854 21.2879 58.615 21.0838 58.6997 20.8604C58.7845 20.637 58.8228 20.3988 58.8122 20.1604V19.5052C58.1809 19.9653 57.4126 20.2032 56.6292 20.1812C56.081 20.2009 55.5344 20.1107 55.0222 19.9159C54.51 19.7211 54.0429 19.4257 53.6488 19.0476C52.8921 18.2719 52.4692 17.2352 52.4692 16.1564C52.4692 15.0775 52.8921 14.0409 53.6488 13.2652C54.0448 12.8903 54.5125 12.5978 55.0244 12.4049C55.5363 12.212 56.082 12.1226 56.6292 12.142C57.4352 12.1209 58.2242 12.3742 58.8646 12.8596V12.6932C58.8598 12.6533 58.864 12.6129 58.8769 12.5748C58.8898 12.5368 58.9111 12.5021 58.9393 12.4732C58.9674 12.4443 59.0017 12.422 59.0396 12.4079C59.0775 12.3938 59.1181 12.3882 59.1585 12.3916L60.9006 12.3812ZM56.8287 18.33C57.099 18.3383 57.3679 18.2876 57.6164 18.1816C57.8648 18.0756 58.0867 17.9167 58.2664 17.7164C58.6153 17.2699 58.8047 16.7211 58.8047 16.1564C58.8047 15.5916 58.6153 15.0429 58.2664 14.5964C58.0874 14.3987 57.8668 14.2423 57.6202 14.1381C57.3737 14.0339 57.1071 13.9844 56.8391 13.9932C56.5657 13.9847 56.2936 14.0351 56.0417 14.1411C55.7898 14.247 55.5642 14.4059 55.3804 14.6068C54.9939 15.0339 54.7906 15.5935 54.8137 16.1668C54.7947 16.7344 54.9935 17.2881 55.3699 17.7164C55.5541 17.9167 55.7798 18.0752 56.0316 18.1811C56.2834 18.287 56.5553 18.3378 56.8287 18.33Z" fill="#1D2130"/>
<path d="M70.2514 19.0892C69.3637 19.8108 68.2511 20.2052 67.1029 20.2052C65.9548 20.2052 64.8422 19.8108 63.9545 19.0892C63.1931 18.3013 62.7681 17.2525 62.7681 16.1616C62.7681 15.0707 63.1931 14.0219 63.9545 13.234C64.843 12.5142 65.9553 12.121 67.1029 12.121C68.2505 12.121 69.3629 12.5142 70.2514 13.234C71.0121 14.0201 71.4368 15.0672 71.4368 16.1564C71.4368 17.2456 71.0121 18.2926 70.2514 19.0788V19.0892ZM65.6022 17.7164C65.8034 17.906 66.0406 18.0543 66.3 18.1525C66.5594 18.2506 66.8359 18.2968 67.1134 18.2884C67.3892 18.2955 67.6638 18.2486 67.9213 18.1504C68.1788 18.0523 68.4142 17.9048 68.6142 17.7164C68.9802 17.2896 69.1812 16.7477 69.1812 16.1876C69.1812 15.6275 68.9802 15.0856 68.6142 14.6588C68.4142 14.4704 68.1788 14.3229 67.9213 14.2247C67.6638 14.1266 67.3892 14.0797 67.1134 14.0868C66.8359 14.0783 66.5594 14.1245 66.3 14.2227C66.0406 14.3209 65.8034 14.4691 65.6022 14.6588C65.2362 15.0856 65.0352 15.6275 65.0352 16.1876C65.0352 16.7477 65.2362 17.2896 65.6022 17.7164Z" fill="#1D2130"/>
<path d="M75.2259 10.6132C74.9485 10.8538 74.5923 10.9865 74.2236 10.9865C73.855 10.9865 73.4988 10.8538 73.2214 10.6132C73.0956 10.4956 72.9954 10.3537 72.9269 10.1964C72.8584 10.039 72.8231 9.8694 72.8231 9.69802C72.8231 9.52663 72.8584 9.35705 72.9269 9.19967C72.9954 9.0423 73.0956 8.90045 73.2214 8.78281C73.5017 8.5482 73.8568 8.41949 74.2236 8.41949C74.5906 8.41949 74.9456 8.5482 75.2259 8.78281C75.3517 8.90045 75.4519 9.0423 75.5204 9.19967C75.5889 9.35705 75.6242 9.52663 75.6242 9.69802C75.6242 9.8694 75.5889 10.039 75.5204 10.1964C75.4519 10.3537 75.3517 10.4956 75.2259 10.6132ZM75.4463 20.202C74.8224 20.2323 74.2061 20.0568 73.6937 19.7028C73.4834 19.5436 73.3146 19.3369 73.2014 19.0999C73.0882 18.8629 73.0339 18.6025 73.043 18.3404V12.6828C73.0379 12.642 73.0423 12.6006 73.0557 12.5617C73.0692 12.5228 73.0915 12.4874 73.1208 12.4584C73.1502 12.4293 73.1859 12.4072 73.2251 12.3938C73.2644 12.3805 73.3062 12.3762 73.3473 12.3812H75.1105C75.3099 12.3812 75.4043 12.4852 75.4043 12.6828V17.5916C75.4043 17.9868 75.5827 18.1844 75.9395 18.1844C76.0987 18.1901 76.2578 18.1726 76.4118 18.1324C76.6217 18.1324 76.7371 18.1948 76.7476 18.382L76.9051 19.682C76.9126 19.7199 76.9119 19.759 76.9029 19.7966C76.894 19.8342 76.877 19.8695 76.8531 19.9C76.8293 19.9305 76.7991 19.9557 76.7646 19.9737C76.7301 19.9917 76.6921 20.0022 76.6532 20.0044C76.2636 20.1316 75.8565 20.1982 75.4463 20.202Z" fill="#1D2130"/>
<path d="M83.3909 12.1316C83.9416 12.1101 84.4911 12.1984 85.0067 12.3913C85.5223 12.5843 85.9935 12.8779 86.3924 13.2548C87.1345 14.0441 87.5471 15.0828 87.5471 16.1616C87.5471 17.2404 87.1345 18.2792 86.3924 19.0684C85.9954 19.4487 85.5248 19.7452 85.0089 19.9401C84.493 20.1349 83.9425 20.224 83.3909 20.202C82.605 20.2194 81.8349 19.982 81.1975 19.526V23.2804C81.1975 23.478 81.0925 23.5716 80.8931 23.5716H79.13C79.0898 23.5791 79.0483 23.5767 79.0092 23.5647C78.9702 23.5527 78.9346 23.5315 78.9057 23.5028C78.8767 23.4741 78.8553 23.4389 78.8432 23.4001C78.8311 23.3614 78.8287 23.3203 78.8362 23.2804V14.7524C78.8485 14.669 78.841 14.5839 78.8143 14.5039C78.7875 14.4238 78.7423 14.3511 78.6821 14.2915C78.622 14.2319 78.5486 14.187 78.4678 14.1605C78.3871 14.134 78.3012 14.1266 78.217 14.1388H77.8707C77.6398 14.1388 77.5243 14.0556 77.5243 13.8892V12.662C77.5189 12.5861 77.5399 12.5106 77.5838 12.4482C77.6277 12.3857 77.6919 12.3401 77.7657 12.3188C78.1287 12.1881 78.5129 12.1246 78.8991 12.1316C79.2843 12.0979 79.6708 12.1788 80.0092 12.3641C80.3476 12.5494 80.6225 12.8306 80.7987 13.1716C81.1367 12.8328 81.5409 12.5658 81.9866 12.387C82.4323 12.2081 82.9101 12.1213 83.3909 12.1316ZM81.7537 17.7164C81.9408 17.9102 82.1656 18.0645 82.4145 18.1698C82.6634 18.2752 82.9313 18.3295 83.202 18.3295C83.4726 18.3295 83.7405 18.2752 83.9894 18.1698C84.2383 18.0645 84.4631 17.9102 84.6502 17.7164C85.0444 17.2808 85.2515 16.7099 85.2275 16.1252C85.2549 15.5401 85.0474 14.9679 84.6502 14.534C84.4631 14.3402 84.2383 14.186 83.9894 14.0806C83.7405 13.9753 83.4726 13.9209 83.202 13.9209C82.9313 13.9209 82.6634 13.9753 82.4145 14.0806C82.1656 14.186 81.9408 14.3402 81.7537 14.534C81.3718 14.9756 81.1731 15.5442 81.1975 16.1252C81.1762 16.7058 81.3746 17.2733 81.7537 17.7164Z" fill="#1D2130"/>
<path d="M92.5002 20.202C91.5581 20.2403 90.6239 20.017 89.803 19.5572C89.4737 19.3606 89.1932 19.093 88.9825 18.7744C88.7717 18.4557 88.6361 18.0941 88.5857 17.7164C88.5857 17.5084 88.6591 17.4044 88.89 17.4044H90.4327C90.5061 17.4072 90.5773 17.4301 90.6384 17.4704C90.6995 17.5108 90.7482 17.5671 90.7791 17.6332C90.9994 18.1948 91.5767 18.4756 92.5002 18.4756C92.8223 18.4902 93.1431 18.4259 93.4342 18.2884C93.5347 18.2434 93.6209 18.1722 93.6838 18.0825C93.7466 17.9927 93.7837 17.8878 93.791 17.7788C93.791 17.5084 93.6231 17.3212 93.2873 17.1964C92.889 17.065 92.4771 16.9778 92.0594 16.9364C91.5646 16.8809 91.0738 16.794 90.5901 16.6764C90.1198 16.5709 89.6921 16.3282 89.3623 15.9796C89.168 15.7426 89.025 15.4686 88.9422 15.1746C88.8593 14.8805 88.8384 14.5728 88.8808 14.2704C88.9231 13.968 89.0277 13.6774 89.1882 13.4169C89.3487 13.1563 89.5615 12.9312 89.8135 12.7556C90.57 12.278 91.4575 12.0454 92.3533 12.09C93.2205 12.0609 94.0786 12.2735 94.83 12.7036C95.1328 12.8735 95.3936 13.1083 95.5933 13.3908C95.793 13.6732 95.9266 13.9963 95.9844 14.3364C95.9844 14.5444 95.89 14.6484 95.7011 14.6484H94.1479C94.0825 14.6522 94.0174 14.6364 93.9612 14.603C93.9051 14.5696 93.8604 14.5202 93.833 14.4612C93.7292 14.2148 93.5338 14.0175 93.2873 13.91C93.0092 13.7658 92.6985 13.6942 92.3847 13.702C92.0771 13.6854 91.7702 13.7462 91.4927 13.8788C91.3949 13.9162 91.3107 13.9817 91.2508 14.067C91.1909 14.1522 91.1582 14.2533 91.1569 14.3572C91.1636 14.4994 91.2161 14.6357 91.3068 14.7462C91.3974 14.8566 91.5215 14.9353 91.6606 14.9708C92.0636 15.1213 92.4826 15.226 92.9095 15.2828C93.4003 15.3468 93.8873 15.437 94.3683 15.5532C94.8386 15.6587 95.2663 15.9014 95.5961 16.25C95.7726 16.442 95.9089 16.6668 95.9972 16.9114C96.0854 17.1559 96.1239 17.4154 96.1104 17.6748C96.1194 18.0343 96.0343 18.39 95.8632 18.7071C95.6921 19.0243 95.441 19.2921 95.1344 19.4844C94.3503 19.9832 93.4314 20.2335 92.5002 20.202Z" fill="#1D2130"/>
<path d="M107.203 19.682C107.209 19.7189 107.208 19.7566 107.199 19.793C107.19 19.8293 107.174 19.8635 107.151 19.8935C107.129 19.9235 107.1 19.9488 107.068 19.9678C107.035 19.9869 106.999 19.9993 106.962 20.0044C106.579 20.1283 106.179 20.1949 105.776 20.202C105.377 20.2429 104.974 20.1811 104.607 20.0226C104.239 19.8641 103.919 19.6142 103.677 19.2972C102.936 19.9288 101.977 20.2528 101.001 20.202C100.548 20.2227 100.095 20.1492 99.6721 19.9862C99.2492 19.8232 98.8653 19.5743 98.5452 19.2556C98.2273 18.9216 97.9808 18.5274 97.8203 18.0968C97.6598 17.6661 97.5887 17.2077 97.6112 16.7492V12.6828C97.6112 12.4852 97.7056 12.3812 97.905 12.3812H99.6682C99.8676 12.3812 99.962 12.4852 99.962 12.6828V16.4372C99.9428 16.9049 100.104 17.3624 100.413 17.7164C100.568 17.8786 100.755 18.0061 100.963 18.0904C101.171 18.1747 101.395 18.2139 101.62 18.2052C101.85 18.2152 102.08 18.1798 102.296 18.1013C102.512 18.0228 102.711 17.9025 102.88 17.7476C103.039 17.5843 103.164 17.3902 103.245 17.1773C103.326 16.9644 103.363 16.7373 103.352 16.51V12.6828C103.352 12.4852 103.446 12.3812 103.646 12.3812H105.43C105.629 12.3812 105.724 12.4852 105.724 12.6828V17.5812C105.724 17.9868 105.902 18.1844 106.248 18.1844C106.411 18.1906 106.574 18.1731 106.731 18.1324C106.771 18.1214 106.812 18.1194 106.853 18.1266C106.894 18.1338 106.932 18.15 106.965 18.174C106.999 18.1981 107.026 18.2293 107.045 18.2653C107.065 18.3013 107.076 18.3412 107.077 18.382L107.203 19.682Z" fill="#1D2130"/>
<path d="M123.879 19.682C123.889 19.7193 123.89 19.7581 123.882 19.7957C123.874 19.8334 123.859 19.8689 123.835 19.8997C123.812 19.9305 123.783 19.9559 123.749 19.974C123.714 19.9921 123.677 20.0025 123.638 20.0044C123.248 20.1301 122.841 20.1968 122.431 20.202C121.807 20.2339 121.19 20.0582 120.679 19.7028C120.457 19.5506 120.277 19.3466 120.155 19.1089C120.032 18.8713 119.97 18.6073 119.975 18.3404V15.8964C119.997 15.4301 119.84 14.9728 119.535 14.6172C119.387 14.4547 119.206 14.3265 119.002 14.242C118.799 14.1575 118.579 14.1187 118.359 14.1284C118.161 14.121 117.963 14.1583 117.781 14.2376C117.6 14.3168 117.438 14.436 117.31 14.586C117.033 14.9345 116.891 15.37 116.911 15.8132V19.6508C116.911 19.8484 116.816 19.9524 116.617 19.9524H114.843C114.802 19.9575 114.76 19.9532 114.721 19.9398C114.682 19.9264 114.646 19.9044 114.617 19.8753C114.588 19.8462 114.565 19.8109 114.552 19.772C114.538 19.7331 114.534 19.6916 114.539 19.6508V15.8964C114.562 15.4352 114.417 14.9811 114.13 14.6172C114.002 14.4644 113.841 14.3413 113.66 14.2568C113.479 14.1723 113.281 14.1285 113.08 14.1284C112.866 14.1199 112.653 14.1562 112.454 14.2351C112.255 14.3139 112.075 14.4335 111.926 14.586C111.626 14.9234 111.471 15.3641 111.496 15.8132V19.6508C111.501 19.6916 111.496 19.7331 111.483 19.772C111.469 19.8109 111.447 19.8462 111.418 19.8753C111.388 19.9044 111.353 19.9264 111.314 19.9398C111.274 19.9532 111.232 19.9575 111.191 19.9524H109.481C109.281 19.9524 109.187 19.8484 109.187 19.6508V14.7524C109.199 14.669 109.192 14.5839 109.165 14.5039C109.138 14.4238 109.093 14.3511 109.033 14.2915C108.973 14.2319 108.899 14.187 108.818 14.1605C108.738 14.134 108.652 14.1266 108.568 14.1388H108.221C107.99 14.1388 107.875 14.0556 107.875 13.8892V12.662C107.869 12.5861 107.89 12.5106 107.934 12.4481C107.978 12.3857 108.043 12.34 108.116 12.3188C108.479 12.188 108.864 12.1246 109.25 12.1316C109.62 12.1003 109.993 12.1735 110.323 12.3428C110.654 12.5121 110.929 12.7706 111.118 13.0884C111.472 12.7559 111.891 12.4993 112.35 12.3346C112.809 12.17 113.297 12.1009 113.783 12.1316C114.256 12.1087 114.728 12.1966 115.16 12.3882C115.592 12.5797 115.973 12.8695 116.271 13.234C116.618 12.8599 117.045 12.567 117.52 12.3763C117.996 12.1857 118.508 12.1021 119.02 12.1316C119.478 12.1104 119.936 12.1835 120.364 12.3464C120.792 12.5093 121.182 12.7584 121.508 13.078C121.826 13.4113 122.074 13.8053 122.234 14.2362C122.395 14.667 122.465 15.1257 122.442 15.5844V17.5916C122.442 17.9868 122.62 18.1844 122.956 18.1844C123.119 18.1919 123.281 18.1744 123.439 18.1324C123.656 18.1324 123.771 18.2156 123.785 18.382L123.879 19.682Z" fill="#1D2130"/>
<path d="M0.818406 11.0292C1.59267 7.94529 3.38586 5.20671 5.91244 3.24953C8.43902 1.29236 11.5537 0.229126 14.7606 0.229126C17.9675 0.229126 21.0822 1.29236 23.6088 3.24953C26.1354 5.20671 27.9286 7.94529 28.7029 11.0292H27.4435C25.319 10.9982 23.2381 11.6274 21.493 12.8284C21.3923 12.9007 21.2871 12.9667 21.1782 13.026H21.0312C20.9223 12.9667 20.8171 12.9007 20.7164 12.8284C18.9558 11.6552 16.8823 11.0286 14.7606 11.0286C12.639 11.0286 10.5655 11.6552 8.80488 12.8284C8.70417 12.9007 8.59902 12.9667 8.49004 13.026H8.34312C8.23414 12.9667 8.12899 12.9007 8.02828 12.8284C6.28314 11.6274 4.20224 10.9982 2.07777 11.0292H0.818406ZM25.1766 17.55C25.8231 17.0511 26.6244 16.7901 27.4435 16.8116H29.1331V13.4732H27.4435C26.0007 13.4559 24.5909 13.901 23.424 14.742C22.7674 15.2218 21.973 15.4806 21.1572 15.4806C20.3413 15.4806 19.547 15.2218 18.8903 14.742C17.6938 13.9167 16.2709 13.4742 14.8131 13.4742C13.3553 13.4742 11.9324 13.9167 10.7359 14.742C10.0793 15.2218 9.28487 15.4806 8.46905 15.4806C7.65324 15.4806 6.85885 15.2218 6.2022 14.742C5.02091 13.8902 3.59089 13.4446 2.13024 13.4732H0.388123V16.8116H2.07777C2.89689 16.7901 3.69814 17.0511 4.34463 17.55C5.53894 18.376 6.96022 18.8188 8.41658 18.8188C9.87294 18.8188 11.2942 18.376 12.4885 17.55C13.1358 17.0526 13.9365 16.7918 14.7554 16.8116C15.5748 16.7884 16.3766 17.0496 17.0222 17.55C18.2187 18.3754 19.6416 18.8179 21.0994 18.8179C22.5573 18.8179 23.9802 18.3754 25.1766 17.55ZM25.1766 23.5196C25.8231 23.0207 26.6244 22.7597 27.4435 22.7812H29.1331V19.4428H27.4435C26.0007 19.4255 24.5909 19.8706 23.424 20.7116C22.7674 21.1914 21.973 21.4502 21.1572 21.4502C20.3413 21.4502 19.547 21.1914 18.8903 20.7116C17.6938 19.8863 16.2709 19.4438 14.8131 19.4438C13.3553 19.4438 11.9324 19.8863 10.7359 20.7116C10.0793 21.1914 9.28487 21.4502 8.46905 21.4502C7.65324 21.4502 6.85885 21.1914 6.2022 20.7116C5.02091 19.8598 3.59089 19.4142 2.13024 19.4428H0.388123V22.7812H2.07777C2.89689 22.7597 3.69814 23.0207 4.34463 23.5196C5.53894 24.3456 6.96022 24.7884 8.41658 24.7884C9.87294 24.7884 11.2942 24.3456 12.4885 23.5196C13.1358 23.0223 13.9365 22.7614 14.7554 22.7812C15.5748 22.758 16.3766 23.0192 17.0222 23.5196C18.2187 24.345 19.6416 24.7875 21.0994 24.7875C22.5573 24.7875 23.9802 24.345 25.1766 23.5196Z" fill="#1D2130"/>
</g>
</svg>
