<?xml version="1.0" encoding="UTF-8"?>
<svg width="138" height="31" viewBox="0 0 138 31" fill="none" version="1.1" xmlns="http://www.w3.org/2000/svg" xmlns:xlink="http://www.w3.org/1999/xlink">
<g id="Logo" opacity="0.6">
<path d="M33.6484 7.2937H36.8138V22.6107H33.6484V7.2937Z" fill="#1D2130"/>
<path d="M38.5864 17.3637C38.5864 16.2617 38.9121 15.1845 39.5222 14.2687C40.1322 13.3528 40.9992 12.6396 42.0133 12.2193C43.0273 11.7991 44.1427 11.6907 45.2181 11.9081C46.2935 12.1254 47.2804 12.6586 48.0538 13.44C48.8272 14.2215 49.3523 15.216 49.5625 16.2976C49.7726 17.3792 49.6584 18.4991 49.2343 19.5154C48.8102 20.5317 48.0952 21.3987 47.1801 22.0063C46.265 22.614 45.191 22.935 44.0941 22.9287C43.3665 22.9344 42.6452 22.7941 41.9723 22.5161C41.2994 22.238 40.6886 21.8278 40.1756 21.3095C39.6626 20.7912 39.2578 20.1752 38.9849 19.4976C38.712 18.82 38.5765 18.0946 38.5864 17.3637ZM46.5208 17.3637C46.5084 16.8886 46.3568 16.4277 46.085 16.0388C45.8132 15.6498 45.4333 15.3499 44.9928 15.1767C44.5522 15.0035 44.0706 14.9646 43.6082 15.0649C43.1458 15.1652 42.7231 15.4003 42.393 15.7407C42.0629 16.0811 41.8399 16.5117 41.7521 16.9787C41.6643 17.4457 41.7155 17.9283 41.8993 18.3662C42.0831 18.8042 42.3913 19.1779 42.7855 19.4408C43.1796 19.7036 43.6421 19.8439 44.1152 19.8441C44.4372 19.8504 44.7572 19.7899 45.0549 19.6664C45.3527 19.5428 45.6219 19.3589 45.8457 19.1261C46.0695 18.8933 46.243 18.6167 46.3556 18.3134C46.4681 18.0102 46.5172 17.6868 46.4997 17.3637H46.5208Z" fill="#1D2130"/>
<path d="M62.126 12.1167V22.0913C62.126 25.6105 59.3827 27.1051 56.6077 27.1051C55.629 27.1858 54.6472 26.9904 53.7729 26.541C52.8987 26.0915 52.1666 25.4058 51.6593 24.5611L54.3287 23.0135C54.545 23.4516 54.8891 23.8132 55.3151 24.0499C55.7411 24.2866 56.2288 24.3873 56.7133 24.3385C57.0218 24.3767 57.335 24.3459 57.6304 24.2483C57.9258 24.1508 58.196 23.9889 58.4218 23.7741C58.6477 23.5594 58.8235 23.2972 58.9367 23.0063C59.0499 22.7154 59.0977 22.4029 59.0767 22.0913V21.1267C58.7084 21.5754 58.241 21.9316 57.7117 22.1671C57.1824 22.4026 56.6057 22.511 56.0274 22.4835C54.6283 22.4835 53.2864 21.9251 52.297 20.9312C51.3077 19.9372 50.7519 18.5891 50.7519 17.1835C50.7519 15.7778 51.3077 14.4298 52.297 13.4358C53.2864 12.4419 54.6283 11.8835 56.0274 11.8835C56.6057 11.856 57.1824 11.9643 57.7117 12.1999C58.241 12.4354 58.7084 12.7916 59.0767 13.2403V12.1803L62.126 12.1167ZM59.0767 17.1517C59.0978 16.6446 58.9673 16.1427 58.7022 15.7106C58.437 15.2786 58.0493 14.936 57.5888 14.7271C57.1284 14.5182 56.6162 14.4525 56.1183 14.5384C55.6203 14.6242 55.1593 14.8578 54.7945 15.209C54.4298 15.5601 54.1779 16.0129 54.0713 16.5091C53.9648 17.0053 54.0084 17.5221 54.1965 17.9932C54.3847 18.4642 54.7088 18.868 55.1272 19.1525C55.5456 19.437 56.0392 19.5893 56.5444 19.5897C56.8741 19.6136 57.2051 19.5677 57.516 19.455C57.827 19.3424 58.1109 19.1655 58.3496 18.9357C58.5882 18.706 58.7762 18.4285 58.9015 18.1212C59.0267 17.8139 59.0864 17.4836 59.0767 17.1517Z" fill="#1D2130"/>
<path d="M63.9091 17.3637C63.9091 16.2626 64.2342 15.1862 64.8434 14.2708C65.4525 13.3555 66.3183 12.6422 67.3311 12.2213C68.3439 11.8004 69.4582 11.6908 70.533 11.9064C71.6078 12.122 72.5948 12.6531 73.3691 13.4324C74.1433 14.2117 74.6701 15.2043 74.8826 16.2845C75.0952 17.3647 74.984 18.484 74.5631 19.5007C74.1422 20.5174 73.4306 21.3858 72.5183 21.996C71.6059 22.6062 70.5339 22.9308 69.4379 22.9287C68.709 22.9358 67.986 22.7966 67.3113 22.5193C66.6367 22.2421 66.0239 21.8322 65.5089 21.3139C64.994 20.7956 64.5872 20.1792 64.3125 19.5009C64.0378 18.8226 63.9006 18.096 63.9091 17.3637ZM71.8435 17.3637C71.8311 16.8881 71.6792 16.4269 71.4069 16.0377C71.1347 15.6485 70.7541 15.3486 70.313 15.1758C69.8719 15.0029 69.3898 14.9646 68.9271 15.0658C68.4644 15.167 68.0417 15.4031 67.712 15.7445C67.3823 16.086 67.1603 16.5176 67.0737 16.9852C66.987 17.4529 67.0397 17.9359 67.2251 18.3736C67.4105 18.8113 67.7204 19.1843 68.1159 19.4459C68.5114 19.7075 68.9749 19.846 69.4484 19.8441C69.7705 19.8504 70.0904 19.7899 70.3882 19.6664C70.686 19.5428 70.9551 19.3589 71.1789 19.1261C71.4027 18.8933 71.5763 18.6167 71.6889 18.3134C71.8014 18.0102 71.8505 17.6869 71.833 17.3637H71.8435Z" fill="#1D2130"/>
<path d="M76.4333 9.30765C76.4333 8.93447 76.5435 8.56968 76.7499 8.2594C76.9562 7.94911 77.2496 7.70728 77.5927 7.56447C77.9359 7.42166 78.3135 7.3843 78.6778 7.4571C79.0422 7.5299 79.3768 7.7096 79.6395 7.97348C79.9021 8.23735 80.081 8.57355 80.1535 8.93955C80.2259 9.30555 80.1887 9.68493 80.0466 10.0297C79.9044 10.3745 79.6637 10.6691 79.3549 10.8765C79.046 11.0838 78.6829 11.1944 78.3114 11.1944C77.815 11.1889 77.3405 10.9884 76.9895 10.6357C76.6385 10.2831 76.4388 9.80635 76.4333 9.30765ZM76.7393 12.1166H79.9047V22.6107H76.7393V12.1166Z" fill="#1D2130"/>
<path d="M93.4523 17.3637C93.4878 18.0616 93.3855 18.7597 93.1514 19.4178C92.9173 20.0758 92.556 20.6809 92.0882 21.1981C91.6204 21.7153 91.0555 22.1345 90.4258 22.4315C89.7962 22.7285 89.1143 22.8975 88.4194 22.9287C87.8297 22.9681 87.2388 22.8733 86.6907 22.6512C86.1426 22.4291 85.6515 22.0855 85.2541 21.6461V26.8295H82.0887V12.1167H85.2541V13.1025C85.652 12.6644 86.1435 12.3224 86.6916 12.1022C87.2398 11.8819 87.8305 11.789 88.4194 11.8305C89.1115 11.8618 89.7907 12.0298 90.4182 12.3248C91.0457 12.6198 91.6092 13.0361 92.0765 13.5499C92.5439 14.0637 92.9059 14.665 93.142 15.3194C93.378 15.9737 93.4835 16.6684 93.4523 17.3637ZM90.2869 17.3637C90.2745 16.8714 90.1176 16.3937 89.8361 15.9906C89.5546 15.5874 89.1608 15.2767 88.7043 15.0974C88.2477 14.9181 87.7486 14.8782 87.2696 14.9827C86.7905 15.0871 86.3528 15.3313 86.0113 15.6846C85.6698 16.0379 85.4397 16.4846 85.3498 16.9687C85.2599 17.4529 85.3143 17.9529 85.5061 18.4061C85.6979 18.8593 86.0186 19.2456 86.428 19.5165C86.8374 19.7874 87.3172 19.9309 87.8074 19.9289C88.1432 19.9432 88.4782 19.8861 88.7904 19.7612C89.1027 19.6364 89.3851 19.4466 89.6192 19.2044C89.8533 18.9622 90.0339 18.673 90.1489 18.3558C90.264 18.0385 90.311 17.7005 90.2869 17.3637Z" fill="#1D2130"/>
<path d="M103.085 19.4625C103.085 21.8793 100.975 22.9075 98.7384 22.9075C97.8261 22.99 96.9101 22.7957 96.1088 22.3497C95.3076 21.9038 94.6578 21.2267 94.2436 20.4059L96.9658 18.8583C97.0736 19.2365 97.3075 19.5661 97.6282 19.7918C97.949 20.0176 98.3372 20.1258 98.7278 20.0985C99.477 20.0985 99.8568 19.8653 99.8568 19.4413C99.8568 18.2859 94.7184 18.9007 94.7184 15.2649C94.7184 12.9753 96.6387 11.8305 98.8123 11.8305C99.6385 11.7933 100.459 11.9816 101.187 12.3754C101.916 12.7692 102.524 13.3538 102.948 14.0671L100.226 15.5087C100.106 15.2352 99.9093 15.0026 99.6603 14.8389C99.4113 14.6753 99.1204 14.5876 98.8228 14.5865C98.2741 14.5865 97.9471 14.7985 97.9471 15.1695C97.9471 16.3779 103.085 15.5829 103.085 19.4625Z" fill="#1D2130"/>
<path d="M114.554 12.1167V22.6107H111.389V21.6249C111.03 22.0613 110.573 22.4066 110.056 22.6331C109.539 22.8596 108.977 22.9608 108.414 22.9287C106.303 22.9287 104.499 21.4129 104.499 18.5827V12.1167H107.665V18.1057C107.64 18.3561 107.669 18.6089 107.751 18.8467C107.833 19.0845 107.965 19.3017 108.139 19.4831C108.312 19.6645 108.523 19.8059 108.756 19.8975C108.99 19.9891 109.24 20.0288 109.49 20.0137C110.629 20.0137 111.431 19.3353 111.431 17.8937V12.1167H114.554Z" fill="#1D2130"/>
<path d="M132.491 16.1659V22.6107H129.326V16.4415C129.326 15.3815 128.83 14.7243 127.828 14.7243C126.825 14.7243 126.192 15.4557 126.192 16.6959V22.6107H123.027V16.4415C123.027 15.3815 122.531 14.7243 121.529 14.7243C120.526 14.7243 119.893 15.4557 119.893 16.6959V22.6107H116.728V12.1167H119.893V13.0813C120.221 12.6551 120.649 12.3176 121.139 12.0993C121.629 11.8809 122.166 11.7885 122.7 11.8305C123.235 11.8024 123.769 11.9147 124.248 12.1563C124.727 12.3979 125.135 12.7605 125.433 13.2085C125.78 12.7404 126.241 12.3685 126.77 12.1276C127.3 11.8866 127.881 11.7844 128.461 11.8305C130.93 11.8305 132.491 13.5477 132.491 16.1659Z" fill="#1D2130"/>
<path d="M14.7936 4.53771V0.0327148H0.655029V30.9847H14.7936V26.4797C11.8973 26.4797 9.11962 25.3238 7.07165 23.2664C5.02367 21.2089 3.87313 18.4184 3.87313 15.5087C3.87313 12.599 5.02367 9.80851 7.07165 7.75104C9.11962 5.69358 11.8973 4.53771 14.7936 4.53771Z" fill="#1D2130"/>
<path d="M14.7936 4.53771V26.4797C17.6898 26.4797 20.4674 25.3238 22.5154 23.2664C24.5634 21.2089 25.7139 18.4184 25.7139 15.5087C25.7139 12.599 24.5634 9.80851 22.5154 7.75105C20.4674 5.69359 17.6898 4.53771 14.7936 4.53771Z" fill="#1D2130"/>
<path d="M135.15 12.0531C136.432 12.0531 137.472 11.009 137.472 9.72109C137.472 8.43316 136.432 7.38908 135.15 7.38908C133.868 7.38908 132.829 8.43316 132.829 9.72109C132.829 11.009 133.868 12.0531 135.15 12.0531Z" fill="#1D2130"/>
</g>
</svg>
