<svg width="128" height="128" viewBox="0 0 128 128" fill="none" xmlns="http://www.w3.org/2000/svg">
<g id="namaste 1" clip-path="url(#clip0_117_1277)">
<path id="Vector" d="M69.9755 3.43686L85.8218 24.5875C91.4295 31.4965 94.3021 39.9147 94.991 48.7541L95.0118 49.0235C95.1721 51.1412 95.168 53.2688 95.0146 55.3871L92.1712 71.5752C91.4697 75.569 92.6436 79.6614 95.3594 82.6929L113.651 98.4014L102.291 105.468L91.5731 112.135L68.1988 84.7757C65.4767 81.2816 64 76.9917 64 72.5774V5.52206C64 2.38086 67.9888 0.989001 69.9755 3.43686Z" fill="white"/>
<path id="Vector_2" d="M69.8959 83.3936L92.015 109.284L109.964 98.1191L93.9341 84.3534C93.8617 84.2914 93.7936 84.2246 93.7301 84.1534C90.5476 80.6017 89.194 75.8794 90.0165 71.1973L92.8401 55.1199C92.9802 53.1175 92.9766 51.1229 92.8303 49.1889L92.8103 48.9236C92.1091 39.9283 89.1864 32.2043 84.1233 25.9665C84.1055 25.9445 84.0882 25.9222 84.0713 25.8995L68.2562 4.79016C67.786 4.23658 67.1931 4.36814 66.9573 4.45156C66.7262 4.53361 66.1882 4.80219 66.1882 5.52178V72.5771C66.188 76.4674 67.5043 80.3066 69.8959 83.3936Z" fill="#333333"/>
<path id="Vector_3" d="M69.9755 3.43686L85.8218 24.5875C91.4295 31.4965 94.3021 39.9147 94.991 48.7541L95.0118 49.0235C95.1721 51.1412 95.168 53.2688 95.0146 55.3871L92.1712 71.5752C91.4697 75.569 92.6436 79.6614 95.3594 82.6929L113.651 98.4014L102.291 105.468L91.5731 112.135L68.1988 84.7757C65.4767 81.2816 64 76.9917 64 72.5774V5.52206C64 2.38086 67.9888 0.989001 69.9755 3.43686Z" fill="#FAE6B8"/>
<path id="Vector_4" d="M95.3597 82.6932C92.6436 79.6617 91.47 75.5689 92.1715 71.5755L95.0148 55.3873C95.1683 53.2693 95.1724 51.1415 95.0121 49.0237L94.9913 48.7543C94.3024 39.9149 91.4297 31.4965 85.8221 24.5878L69.9758 3.43712C67.9888 0.988988 64 2.38085 64 5.52205V5.77176L79.5315 26.502C85.1391 33.411 88.0118 41.8292 88.7007 50.6686L88.7215 50.938C88.8818 53.0557 88.8777 55.1833 88.7242 57.3016L85.8809 73.4898C85.1794 77.4835 86.3532 81.5759 89.0691 84.6074L107.361 100.316L96.0005 107.383L90.4583 110.83L91.5731 112.135L102.291 105.468L113.651 98.4014L95.3597 82.6932Z" fill="#EECAA3"/>
<path id="Vector_5" d="M111.54 91.7746L113.201 94.4077C114.804 96.9491 113.969 100.315 111.365 101.812L90.8615 113.601C88.4046 115.014 85.2713 114.236 83.7591 111.839L82.0984 109.206C80.4954 106.664 81.3298 103.299 83.9342 101.802L104.438 90.0122C106.895 88.5995 110.028 89.3771 111.54 91.7746Z" fill="#F2C94C"/>
<path id="Vector_6" d="M113.201 94.4077L111.54 91.7746C110.028 89.3771 106.895 88.5995 104.438 90.0122L101.996 91.5867L109.222 103.044L111.365 101.812C113.969 100.315 114.803 96.9491 113.201 94.4077Z" fill="#46380D"/>
<path id="Vector_7" d="M118.933 103.298L120.594 105.931C122.197 108.473 121.362 111.838 118.758 113.336L98.2545 125.125C95.7977 126.538 92.6644 125.76 91.1522 123.362L89.4915 120.729C87.8885 118.188 88.7229 114.823 91.3272 113.325L111.831 101.536C114.288 100.123 117.421 100.901 118.933 103.298Z" fill="#F2C94C"/>
<path id="Vector_8" d="M120.594 105.931L118.933 103.298C117.421 100.901 114.288 100.123 111.831 101.536L109.389 103.111L116.615 114.568L118.758 113.336C121.362 111.838 122.197 108.473 120.594 105.931Z" fill="#46380D"/>
<path id="Vector_9" d="M57.9982 3.43686L42.1519 24.5875C36.5442 31.4965 33.6716 39.9147 32.9826 48.7541L32.9619 49.0235C32.8016 51.1412 32.8057 53.2688 32.9591 55.3871L35.8025 71.5752C36.504 75.569 35.3301 79.6614 32.6142 82.6929L14.3223 98.4014L25.6828 105.468L36.4006 112.135L59.7748 84.7757C62.4973 81.2811 63.974 76.9912 63.974 72.5768V5.52206C63.974 2.38086 59.9852 0.989001 57.9982 3.43686Z" fill="white"/>
<path id="Vector_10" d="M57.9982 3.43686L42.1519 24.5875C36.5442 31.4965 33.6716 39.9147 32.9826 48.7541L32.9619 49.0235C32.8016 51.1412 32.8057 53.2688 32.9591 55.3871L35.8025 71.5752C36.504 75.569 35.3301 79.6614 32.6142 82.6929L14.3223 98.4014L25.6828 105.468L36.4006 112.135L59.7748 84.7757C62.4973 81.2811 63.974 76.9912 63.974 72.5768V5.52206C63.974 2.38086 59.9852 0.989001 57.9982 3.43686Z" fill="#FAE6B8"/>
<path id="Vector_11" d="M32.6142 82.6932C35.3304 79.6617 36.504 75.569 35.8025 71.5755L32.9591 55.3874C32.8057 53.2693 32.8016 51.1415 32.9619 49.0237L32.9826 48.7543C33.6716 39.9149 36.5442 31.4965 42.1519 24.5878L57.9982 3.43714C59.9849 0.989276 63.974 2.38114 63.974 5.52234V5.77204L48.4425 26.5023C42.8348 33.4113 39.9622 41.8295 39.2732 50.6689L39.2525 50.9383C39.0922 53.056 39.0963 55.1836 39.2497 57.3019L42.0931 73.4901C42.7946 77.4838 41.6207 81.5762 38.9048 84.6077L20.6129 100.316L31.9734 107.383L37.5157 110.83L36.4009 112.135L25.6828 105.469L14.3223 98.4019L32.6142 82.6932Z" fill="#EECAA3"/>
<path id="Vector_12" d="M16.4342 91.7746L14.7734 94.4077C13.1704 96.9491 14.0049 100.315 16.6092 101.812L37.1127 113.601C39.5696 115.014 42.7029 114.236 44.2151 111.839L45.8758 109.206C47.4788 106.664 46.6444 103.299 44.04 101.802L23.5365 90.0122C21.0796 88.5995 17.9464 89.3771 16.4342 91.7746Z" fill="#F2C94C"/>
<path id="Vector_13" d="M14.7733 94.4077L16.434 91.7746C17.9462 89.3771 21.0795 88.5995 23.5364 90.0122L25.9777 91.5867L18.7517 103.044L16.6093 101.812C14.0048 100.315 13.1706 96.9491 14.7733 94.4077Z" fill="#46380D"/>
<path id="Vector_14" d="M9.04085 103.298L7.38013 105.931C5.77713 108.473 6.61159 111.838 9.21589 113.336L29.7194 125.125C32.1763 126.538 35.3096 125.76 36.8218 123.362L38.4825 120.729C40.0855 118.188 39.251 114.823 36.6467 113.325L16.1432 101.536C13.6863 100.123 10.5531 100.901 9.04085 103.298Z" fill="#F2C94C"/>
<path id="Vector_15" d="M7.38012 105.931L9.04084 103.298C10.553 100.901 13.6863 100.123 16.1432 101.536L18.5845 103.111L11.3585 114.568L9.21616 113.336C6.61158 111.838 5.77711 108.473 7.38012 105.931Z" fill="#46380D"/>
<path id="Vector_16" d="M9.43579 7.74921H14.3589V12.6723H9.43579V7.74921Z" fill="#333333"/>
<path id="Vector_17" d="M4.604 12.5812H9.52708V17.5043H4.604V12.5812Z" fill="#333333"/>
<path id="Vector_18" d="M9.43579 17.4132H14.3589V22.3363H9.43579V17.4132Z" fill="#333333"/>
<path id="Vector_19" d="M14.2678 12.5812H19.1909V17.5043H14.2678V12.5812Z" fill="#333333"/>
<g id="Group">
<path id="Vector_20" d="M113.641 56.7065H118.564V61.6295H113.641V56.7065Z" fill="#333333"/>
<path id="Vector_21" d="M109.083 61.265H114.006V66.188H109.083V61.265Z" fill="#333333"/>
<path id="Vector_22" d="M113.641 65.8235H118.564V70.7465H113.641V65.8235Z" fill="#333333"/>
<path id="Vector_23" d="M118.199 61.265H123.123V66.188H118.199V61.265Z" fill="#333333"/>
</g>
<path id="Vector_24" d="M122.495 104.757L120.834 102.123C120.302 101.276 119.606 100.545 118.786 99.9729C117.965 99.4007 117.039 98.9995 116.06 98.793C116.47 96.8749 116.125 94.9153 115.073 93.2475L113.411 90.6136C112.495 89.1539 111.102 88.0567 109.469 87.5085C107.835 86.9604 106.062 86.9951 104.451 87.607L96.9123 81.1342C94.6956 78.5999 93.7583 75.2624 94.3392 71.9549L97.1839 55.7621C97.5873 53.4684 97.368 50.8863 97.1872 48.5785C96.4274 38.8335 93.098 30.0688 87.5588 23.2295L71.7305 2.10625C69.9213 -0.296211 66.3709 -0.662707 64.0005 1.1055C61.6371 -0.65751 58.0709 -0.303322 56.2704 2.10625L40.4425 23.2295C34.9029 30.0685 31.5735 38.8332 30.8137 48.5793C30.633 50.8871 30.4136 53.4693 30.8167 55.7621L33.6615 71.9549C34.2424 75.2621 33.3051 78.5997 31.0881 81.1339L23.5497 87.6067C21.9388 86.9947 20.1656 86.9598 18.5319 87.508C16.8982 88.0562 15.5049 89.1535 14.5892 90.6133L12.9279 93.2472C11.876 94.9147 11.5303 96.8747 11.9406 98.7927C10.9621 98.9992 10.0352 99.4005 9.21505 99.9728C8.39492 100.545 7.69835 101.276 7.16683 102.123L5.50557 104.757C3.26666 108.307 4.46981 113.14 8.10249 115.228L28.6145 127.021C32.0571 129 36.5464 127.883 38.6622 124.529L40.3238 121.895C41.3759 120.226 41.7214 118.266 41.3106 116.348C42.289 116.141 43.2159 115.74 44.0361 115.169C44.8563 114.597 45.5529 113.865 46.0846 113.019L47.7461 110.384C49.2892 107.938 49.2673 104.746 47.6933 102.318L61.4637 86.202C61.4851 86.1771 61.5058 86.1514 61.5261 86.1254C62.4913 84.8844 63.3207 83.5435 64.0002 82.1257C64.6798 83.5434 65.5092 84.8843 66.4743 86.1254C66.4946 86.1514 66.5151 86.1771 66.5367 86.202L80.3068 102.318C78.7322 104.747 78.7104 107.937 80.2543 110.384L81.9156 113.018C82.4471 113.865 83.1438 114.596 83.964 115.168C84.7842 115.74 85.7111 116.141 86.6896 116.347C86.2788 118.266 86.6245 120.226 87.6766 121.894L89.3382 124.528C91.4518 127.879 95.9441 129 99.3859 127.021L119.898 115.228C123.529 113.141 124.733 108.304 122.495 104.757ZM36.6211 119.559L34.9595 122.193C34.5345 122.871 33.8631 123.357 33.0867 123.55C32.3103 123.743 31.4893 123.627 30.7968 123.226L10.2848 111.433C8.7775 110.567 8.2789 108.566 9.20854 107.092L10.8698 104.458C11.9748 102.707 13.9333 102.803 15.5248 103.718L35.6928 115.313C37.0931 116.225 37.514 118.144 36.6211 119.559ZM44.0434 108.049L42.3819 110.683C41.1582 112.624 39.9223 112.514 37.572 111.344L17.7071 99.9237C16.1999 99.0575 15.7013 97.056 16.6309 95.5824L18.2922 92.9485C19.1682 91.5599 21.0256 91.0936 22.4549 91.9155L42.9669 103.708C44.4742 104.575 44.9731 106.576 44.0434 108.049ZM58.1024 83.3977L44.3722 99.4667L27.6523 89.8544L34.0537 84.3577C34.1261 84.2957 34.1942 84.2289 34.2577 84.1578C37.4418 80.6047 38.796 75.881 37.9733 71.1978L35.1482 55.1158C35.0051 53.0522 35.0151 50.9808 35.1783 48.9187C35.8801 39.9201 38.8039 32.1939 43.8686 25.9545C43.8865 25.9325 43.9039 25.9101 43.9209 25.8874L59.7426 4.77237C60.4217 3.97264 61.8111 4.43541 61.8111 5.50427V28.5618C57.6188 30.0753 48.1419 35.985 48.1419 58.4804C48.1419 59.6893 49.1218 60.669 50.3307 60.669C51.5396 60.669 52.5196 59.689 52.5196 58.4804C52.5196 45.6974 55.7904 39.2635 58.5342 36.1168C59.6952 34.7854 60.8464 33.9252 61.8111 33.3719V72.5782C61.8116 76.4696 60.4944 80.3102 58.1024 83.3977ZM66.1896 72.5785V33.3826C67.0905 33.8987 68.1525 34.676 69.2211 35.8425C72.0771 38.9607 75.4811 45.4192 75.4811 58.4807C75.4811 59.6896 76.4611 60.6693 77.6699 60.6693C78.8788 60.6693 79.8588 59.6893 79.8588 58.4807C79.8588 35.9852 70.3816 30.0753 66.1893 28.562V5.50454C66.1893 4.43596 67.5787 3.97264 68.2581 4.77264L84.0798 25.8877C84.0967 25.9104 84.1143 25.9329 84.132 25.9547C89.1971 32.1942 92.1208 39.9204 92.8226 48.9182C92.981 50.9817 92.9969 53.0508 92.8527 55.116L90.0277 71.1978C89.205 75.881 90.5591 80.6047 93.743 84.1578C93.8067 84.2289 93.8748 84.2957 93.947 84.3577L100.349 89.8544L83.6288 99.4667L69.8989 83.3977C67.5065 80.3099 66.1896 76.4696 66.1896 72.5785ZM85.6191 110.684L83.9578 108.049C83.0306 106.58 83.5314 104.572 85.0338 103.708L105.546 91.9158C106.374 91.4393 108.509 90.9921 109.709 92.9488L111.37 95.5824C112.294 97.0475 111.79 99.0632 110.294 99.924L90.4281 111.345C88.7316 112.15 86.8427 112.623 85.6191 110.684ZM117.716 111.434L97.2042 123.227C96.5116 123.627 95.6907 123.743 94.9143 123.55C94.1379 123.358 93.4665 122.871 93.0414 122.193L91.3799 119.56C90.4866 118.144 90.9081 116.223 92.3104 115.312L112.476 103.719C114.066 102.804 116.024 102.704 117.131 104.459L118.792 107.093C119.721 108.564 119.222 110.568 117.716 111.434Z" fill="#333333"/>
</g>
<defs>
<clipPath id="clip0_117_1277">
<rect width="128" height="128" fill="white"/>
</clipPath>
</defs>
</svg>
