<svg width="52" height="24" viewBox="0 0 52 24" fill="none" xmlns="http://www.w3.org/2000/svg">
<g id="upi 1" clip-path="url(#clip0_114_841)">
<path id="Vector" d="M31.6137 15.7391H29.3844L32.4821 4.39319H34.7114L31.6137 15.7391ZM30.4559 4.74855C30.3036 4.53224 30.0649 4.42409 29.7399 4.42409H17.4914L16.8871 6.64898H28.0286L27.3786 9.02323H18.4664V9.01808H16.2371L14.3887 15.7906H16.618L17.8571 11.2481H27.8762C28.1911 11.2481 28.4856 11.14 28.7598 10.9237C29.034 10.7074 29.2168 10.4395 29.3032 10.1202L30.5422 5.57774C30.6387 5.23782 30.6082 4.96486 30.4559 4.74855ZM13.0887 15.0284C12.9668 15.4764 12.5606 15.7906 12.1036 15.7906H0.611758C0.296914 15.7906 0.0633204 15.6825 -0.0890234 15.4661C-0.241367 15.2498 -0.276914 14.982 -0.185508 14.6627L2.61762 4.42409H4.84691L2.3434 13.5709H11.2606L13.7641 4.42409H15.9934L13.0887 15.0284Z" fill="#70706E"/>
<path id="Vector_2" d="M39.5604 4.4137L42.3788 10.0995L36.4526 15.7854L39.5604 4.4137Z" fill="#098041"/>
<path id="Vector_3" d="M37.5802 4.4137L40.3985 10.0995L34.4673 15.7854L37.5802 4.4137Z" fill="#E97626"/>
</g>
<defs>
<clipPath id="clip0_114_841">
<rect width="52" height="24" fill="white"/>
</clipPath>
</defs>
</svg>
